<?xml version="1.0" encoding="UTF-8"?>
<svg width="582px" height="592px" viewBox="0 0 582 592" version="1.1" xmlns="http://www.w3.org/2000/svg" xmlns:xlink="http://www.w3.org/1999/xlink">
    <!-- Generator: Sketch 51.3 (57544) - http://www.bohemiancoding.com/sketch -->
    <title>automated-savings-DARK</title>
    <desc>Created with Sketch.</desc>
    <defs></defs>
    <g id="Page-1" stroke="none" stroke-width="1" fill="none" fill-rule="evenodd">
        <g id="automated-savings-DARK" transform="translate(0.000000, -3.000000)" fill-rule="nonzero">
            <g id="dark" transform="translate(0.000000, 3.000000)">
                <path d="M438.3,549.3 C495.4,514.6 539.9,461.3 563.2,398.7 C586.9,335.1 587.6,263.4 565.3,199.3 C543.3,136.1 499.7,81.3 443,45.7 C385.8,9.7 316.6,-5.5 249.6,2.9 C183.4,11.2 121.2,42 74.6,89.7 C68.8,95.7 63.2,101.9 57.9,108.4 C54.2,112.8 60.6,119.2 64.3,114.8 C105.5,65 162.3,29.7 225.6,16.1 C289.7,2 358.3,10.9 416.8,41 C474.4,70.7 520.9,119.7 547.5,178.7 C574.6,238.8 579.7,308 562.4,371.5 C545.4,433.9 506.8,489.8 454.4,527.7 C447.7,532.6 440.8,537.1 433.7,541.4 C428.8,544.5 433.3,552.3 438.3,549.3 Z" id="Shape" fill="#DB373E"></path>
                <path d="M0.4,372.2 C26.8,470 103.2,549.5 200.3,578.9 C228.1,587.3 257,591.4 286,591.5 C291.8,591.5 291.8,582.5 286,582.5 C236.7,582.3 188,569.8 145.1,545.5 C102.2,521.2 65.9,485.9 40.5,443.7 C26.6,420.6 16.1,395.8 9.1,369.8 C7.6,364.2 -1.1,366.6 0.4,372.2 Z" id="Shape" fill="#DB373E"></path>
                <path d="M133.7,509.8 C196.2,554.2 276.4,569.3 350.8,550.4 C422.2,532.3 484,483.4 518.3,418.3 C538.1,380.6 548.3,338.5 548.5,296 C548.5,290.2 539.5,290.2 539.5,296 C539.2,368.3 508.2,437.7 454.1,485.8 C399,534.7 323.6,557.4 250.6,547.1 C210.1,541.4 171.6,525.7 138.2,502.1 C133.5,498.7 129,506.5 133.7,509.8 Z" id="Shape" fill="#AFAFAF"></path>
                <path d="M362.2,44.7 C272,17.7 172.2,41.4 104.2,106.6 C85.6,124.4 69.8,145 57.1,167.4 C54.2,172.4 62,177 64.9,171.9 C109.5,93.4 193.6,43.2 284.1,42.5 C309.8,42.3 335.2,46 359.8,53.4 C365.4,55.1 367.7,46.4 362.2,44.7 Z" id="Shape" fill="#AFAFAF"></path>
            </g>
            <g id="Layer_14" transform="translate(64.000000, 58.000000)">
                <path d="M266.7,181.1 C275.6,180 284.5,179.1 293.4,177.6 C298.4,176.7 302.9,177.1 307.4,179.3 C320,185.4 332.7,191.2 345.3,197.4 C362.3,205.8 379.4,214 397,221.3 C400.5,222.8 401.1,225.8 401,229.1 C400.7,248.1 400.4,267.1 400.2,286 C400.1,299 400.2,312 400.2,325 C400.2,325.2 400.2,325.3 400.2,325.5 C400.2,335.2 399.4,336 390.1,336.4 C389.7,335.6 389.4,334.8 389,334 C389.1,331.7 389.2,329.5 389.3,327.2 C391.9,326.5 390.9,324.3 391.1,322.7 C392.2,314.3 389.7,306.3 389,298 C389,297.7 389.1,297.4 389.1,297.1 C393.6,296.1 392.9,291.4 391.5,290.3 C388,287.5 389.5,284.1 388.9,281 C389.8,277.4 388.6,275 385.5,272.8 C382.8,270.8 379.4,270.4 376.9,268.3 C380.2,265.5 384.5,266.4 388.3,265.3 C390.3,264.8 391.3,264.1 391.1,262.1 C390.6,255.9 391.8,249.8 392.1,243.7 C392.3,239.7 390.7,238.6 387.1,239.2 C379.9,240.3 372.7,241.3 365.5,242.5 C343.9,246 322.4,249.8 300.9,253.1 C277.8,256.6 254.9,260.9 231.9,264.7 C214.4,267.6 197.1,271.4 179.5,273.2 C177,273.5 175.8,274.2 176,276.8 C176.1,278.5 176.1,280.1 176,281.8 C175.9,284.7 176.9,285.6 179.9,284.9 C185.7,283.6 191.6,282.6 197.5,281.6 C200.5,281.1 203,282.5 203.8,285.3 C204.7,288.4 202.5,289.8 199.8,290.5 C198.8,290.7 197.9,291.1 196.9,291.2 C191.1,291.7 185.5,293.1 179.8,294 C176.8,294.5 175.5,295.5 176.2,298.4 C176.9,301.6 179.1,299.6 180.6,299.3 C192.4,296.4 204.3,294.6 216.2,292.5 C219.9,291.9 224,292.1 224.7,296.3 C225.3,300.2 221.3,300.8 218.1,301.4 C204.9,303.7 191.6,305.6 178.7,309.2 C177.3,309.6 176,309.9 176.3,311.7 C176.7,313.7 178.1,313 179.4,312.8 C184.8,311.9 190.2,311 195.6,310.4 C198.8,310 201.9,310.4 202.1,314.6 C202.3,318.5 199.3,318.9 196.4,319.4 C190.7,320.3 185,321.6 179.3,322.2 C176,322.6 176.1,324.4 176.3,326.7 C176.6,329.5 178.7,329.6 180.8,329.3 C183.9,328.8 186.9,327.9 190.1,327.5 C205.5,325.2 220.8,322.8 236.2,320.7 C243.1,319.7 250,318.9 256.8,317.6 C259.5,317.1 262.3,317.8 263.1,321.1 C263.8,324.3 261.6,325.5 259,326.4 C258.1,326.7 257.1,327.1 256.1,327.3 C239.1,329.7 222,332.1 205,334.5 C197.1,335.6 189.3,336.9 181.5,338.3 C176.2,339.3 176.7,342.8 177.3,346.1 C178.1,350.4 181.5,347.4 183.2,347.1 C191.9,345.4 200.5,344.3 209.4,344.5 C212.8,344.6 216.2,344.6 216.1,349.1 C216,353.2 212.6,353.3 209.6,353.5 C203.8,353.8 198,354 192.2,354.6 C188.6,355 185,355.9 181.5,356.6 C178.9,357.1 177.9,358.7 178.3,361.3 C178.8,364.6 180.8,362.9 182.4,362.7 C184,362.4 185.7,362.3 187.3,362 C207,358.5 226.7,354.9 246.5,351.6 C269.8,347.7 293.2,344.2 316.5,340.1 C320.2,339.4 321.2,340.6 322.1,343.4 C321.8,345.1 321.5,346.8 321.2,348.5 C309.1,350.5 297,352.4 284.9,354.5 C256.4,359.3 227.9,364.2 199.5,369 C192.3,370.2 185.1,371.4 177.9,372.8 C175.5,373.3 173.7,372.6 171.8,371.5 C144.9,356.2 117.1,342.6 89.7,328.2 C77.6,321.9 77.7,322 77.4,308.4 C76.8,284.5 74.9,260.6 75.4,236.6 C75.5,234 76,231.3 75.9,228.7 C75.7,221.6 80.1,218.5 86.1,216.3 C102.8,210.3 120.2,207.6 137.3,203.4 C146,201.3 154.9,200.2 163.4,197.4 C166.4,197 169.3,196.7 172.3,196.3 C200.5,190.8 229,187.4 257.3,183.3 C260.1,181.1 263.7,182.9 266.7,181.1 Z M239.6,233.5 C235.2,225.7 231.9,224.1 223.8,224.9 C221,225.2 218.1,225.3 215.3,225 C210.9,224.6 207.5,222.5 205.8,218.1 C204.1,213.7 205.2,209.8 208.6,206.8 C211.4,204.4 212.4,201.7 211.9,198.2 C171.2,204.7 130.9,212.3 91.3,223.2 C91.8,225.3 93,225.1 93.8,225.4 C109.5,231.6 125.5,237.4 140.1,246.2 C148.5,251.3 157.8,254.9 165.9,260.3 C171.7,264.2 177.1,264.4 183.3,263.4 C198,260.9 212.7,258.5 227.5,256 C254.8,251.4 282.1,246.8 309.4,242.3 C328.7,239.1 348,236 367.3,232.9 C374.7,231.7 382.2,230.6 391.1,229.2 C382.7,224.4 375.2,221.3 367.9,217.8 C348.7,208.6 329.6,199.2 310.3,190.2 C305.7,188.1 301.3,185.1 295.7,186 C271.3,189.7 246.8,193.2 222.4,196.9 C221.3,197.1 219.2,196.3 219.4,198.4 C219.5,200 221.3,200 222.6,199.9 C223.6,199.8 224.5,199.4 225.5,199.3 C230.6,199 235.8,198.3 240.9,199.8 C243.3,200.5 244.7,202.1 244.4,204.5 C244.1,206.9 242.4,208.2 239.8,208 C238,207.9 236.1,207.7 234.3,207.9 C232.6,208.1 229.6,206.9 229.5,208.9 C229.4,211.2 231.9,213.1 234.5,213.7 C235.6,213.9 236.8,213.5 237.9,213.3 C244.4,212.4 250.9,212.3 256.9,215.4 C265.1,219.6 266.9,227.2 261.4,234.4 C259.8,236.4 258,237.7 258.6,241.1 C259.1,243.9 255.9,246.1 253.5,244.4 C248.6,241 243.8,242.1 238.7,242.7 C236.3,243 233.8,242.9 231.3,242.2 C228.4,241.3 226.2,239.9 227,236.6 C227.7,233.4 230.2,232.8 233.2,233.5 C235.4,234.1 237.5,234.3 239.6,233.5 Z M241.7,222.3 C244.6,225.1 246.8,227.3 249,229.4 C250.1,230.5 251.3,231.5 252.9,230.4 C254.2,229.5 255.7,228.4 255.8,226.6 C255.9,224.9 254.6,223.9 253.2,223.3 C249.9,221.9 246.5,221.7 241.7,222.3 Z M218.5,216.9 C219.7,216.5 221.9,216.9 221.5,214.9 C221.2,213 219.5,211.3 217.4,211.2 C215.7,211.1 214.1,212.5 214.2,214.3 C214.4,216.7 216.7,216.5 218.5,216.9 Z" id="Shape" fill="#B0B0B0"></path>
                <path d="M388.9,334 C389.3,334.8 389.6,335.6 390,336.4 C388.4,338.4 389.3,340.8 388.9,343 C386.5,343.6 384.1,344.1 381.7,344.7 C368,348.2 354.2,350.9 340,348 C333.9,346.7 327.9,344.6 321.9,342.9 C321,340.1 320,339 316.3,339.6 C293,343.7 269.6,347.2 246.3,351.1 C226.6,354.4 206.9,358 187.1,361.5 C185.5,361.8 183.8,361.9 182.2,362.2 C180.6,362.4 178.5,364.1 178.1,360.8 C177.7,358.2 178.7,356.6 181.3,356.1 C184.9,355.4 188.4,354.4 192,354.1 C197.8,353.5 203.6,353.3 209.4,353 C212.5,352.8 215.8,352.7 215.9,348.6 C216,344.1 212.6,344.1 209.2,344 C200.4,343.8 191.7,344.9 183,346.6 C181.3,346.9 177.9,349.9 177.1,345.6 C176.5,342.3 176,338.8 181.3,337.8 C189.1,336.3 196.9,335.1 204.8,334 C221.8,331.6 238.9,329.2 255.9,326.8 C256.9,326.7 257.8,326.2 258.8,325.9 C261.4,325.1 263.6,323.8 262.9,320.6 C262.1,317.3 259.3,316.6 256.6,317.1 C249.8,318.3 242.9,319.2 236,320.2 C220.6,322.3 205.2,324.7 189.9,327 C186.8,327.5 183.7,328.3 180.6,328.8 C178.5,329.2 176.4,329 176.1,326.2 C175.8,324 175.8,322.1 179.1,321.7 C184.8,321.1 190.5,319.8 196.2,318.9 C199.1,318.4 202.1,318 201.9,314.1 C201.7,309.9 198.6,309.5 195.4,309.9 C190,310.6 184.6,311.4 179.2,312.3 C177.8,312.5 176.4,313.2 176.1,311.2 C175.8,309.4 177.1,309.1 178.5,308.7 C191.5,305.1 204.7,303.2 217.9,300.9 C221.1,300.3 225.1,299.7 224.5,295.8 C223.8,291.6 219.7,291.3 216,292 C204.1,294.1 192.2,296 180.4,298.8 C178.9,299.2 176.8,301.1 176,297.9 C175.3,295 176.6,294 179.6,293.5 C185.3,292.6 190.9,291.2 196.7,290.7 C197.7,290.6 198.6,290.2 199.6,290 C202.3,289.3 204.5,287.9 203.6,284.8 C202.8,282 200.3,280.6 197.3,281.1 C191.4,282.1 185.6,283.1 179.7,284.4 C176.7,285.1 175.6,284.2 175.8,281.3 C175.9,279.6 175.9,278 175.8,276.3 C175.6,273.7 176.7,273 179.3,272.7 C196.9,270.9 214.3,267.1 231.7,264.2 C254.7,260.4 277.6,256.1 300.7,252.6 C322.3,249.3 343.8,245.6 365.3,242 C372.5,240.8 379.7,239.8 386.9,238.7 C390.5,238.1 392.1,239.2 391.9,243.2 C391.5,249.3 390.3,255.4 390.9,261.6 C391.1,263.6 390.1,264.3 388.1,264.8 C384.3,265.8 380,264.9 376.7,267.8 C367.6,265.1 358.3,265.6 349.1,265.7 C341.5,265.8 334.4,268 327.8,271.7 C325.6,273 322.8,274.5 323.1,277.5 C323.3,280.3 326.3,280.4 328.4,281.4 C329.6,281.9 330.9,282.3 332.1,282.7 C351.2,287.4 370.1,287.5 388.7,280.6 C389.4,283.7 387.9,287.1 391.3,289.9 C392.7,291 393.3,295.7 388.9,296.7 C388.8,290.2 388.8,290.1 382.2,291.8 C363.3,296.5 344.5,295.9 325.9,289.9 C324.4,289.4 321.9,287 321.1,290.4 C320.5,292.8 319.8,295.8 323.7,297.3 C330.3,299.9 337,301.5 344,301.6 C359.1,301.9 374.2,302.5 388.8,297.6 C389.5,305.8 392,313.9 390.9,322.3 C390.7,324 391.6,326.1 389.1,326.8 C389,323.5 387.4,323.8 384.8,324.5 C365,329.3 345.1,329 325.3,324.9 C324.1,324.7 321.8,322.6 321.2,325.3 C320.7,327.6 320,330.4 322.4,332.2 C323.7,333.2 325.3,333.8 326.8,334.5 C342,341.3 357.7,340.8 373.5,337.4 C378.7,336.6 383.6,334.4 388.9,334 Z M321,309.9 C320.9,315 321.8,315.9 327.6,317 C335.3,318.4 343,318.8 350.8,319.3 C362.9,320 374.5,319 386,315.3 C387.5,314.8 388.7,314.7 389,312.6 C389.6,308 388.7,307 384.2,308.1 C364.3,312.6 344.4,312.9 324.7,307.1 C321.1,305.9 320.7,307.4 321,309.9 Z" id="Shape" fill="#CCCCCC"></path>
                <path d="M162.3,93 C140.3,92.8 122.2,80.5 117.8,62.4 C114.5,48.9 118.6,36.6 125.5,24.8 C132.9,12.1 144.1,4.2 157.9,1.1 C175.8,-3 196.1,7.4 205.6,23.2 C223.3,52.7 201.5,85.3 172.9,91.9 C169.2,92.8 165.4,93.3 162.3,93 Z M168.1,28.5 C172.2,30.1 174.5,33.2 177.6,35.1 C179.9,36.4 182.1,36.7 183.9,34.6 C185.9,32.3 184.9,30.2 183,28.5 C177.5,23.9 172,19.4 166.3,15 C164,13.2 161.2,13.3 159,15.5 C153.6,20.9 148.2,26.4 142.9,31.9 C140.8,34.1 140.4,36.8 142.9,39 C145.2,41 147.5,40 149.5,38 C152.4,35.1 155.2,32.2 159.2,28.2 C159.2,41.6 159.2,53.6 159.2,65.5 C159.2,68.2 159.4,70.8 159.9,73.4 C160.5,76.3 162.1,77.3 164.8,77.1 C167.7,76.8 168.1,74.8 168.1,72.5 C168.1,71 168.1,69.5 168.1,68 C168.1,54.9 168.1,42 168.1,28.5 Z" id="Shape" fill="#85B2D7"></path>
                <path d="M413.1,159 C379.5,159.5 364.1,129 370,105.9 C373.7,91.5 383.7,83.2 397.2,78.5 C413.9,72.7 429.4,73.9 442.4,87.1 C457.7,102.6 459.4,129.6 446,146.7 C439.4,155.1 429.6,157.6 419.6,158.9 C417.4,159.2 415.3,159 413.1,159 Z M418,100.1 C421.4,102.6 424.6,105 427.8,107.3 C430.2,109 432.7,109.7 434.8,107 C436.9,104.3 435.1,102.4 433.2,100.6 C428.2,95.9 422.1,92.7 417,88.2 C413.5,85.2 410.7,85.7 407.9,88.6 C404.1,92.6 400.4,96.6 396.9,100.8 C395.1,102.9 393.8,105.5 396.5,107.8 C399.4,110.3 401.7,108.4 403.8,106.3 C405,105.1 405.6,102.5 407.8,103.5 C409.7,104.4 408.9,106.8 409,108.6 C409.1,120.1 409.1,131.6 409.2,143 C409.2,145.9 409.9,149 413.7,148.9 C417.5,148.8 418,146 418,142.9 C418,128.8 418,114.7 418,100.1 Z" id="Shape" fill="#85B2D7"></path>
                <path d="M38.4,164.8 C36.6,166.6 36.9,167.6 36.9,168.5 C36.6,187.6 35.8,206.8 36.3,225.9 C36.9,247.3 36,268.8 37.8,290.3 C38,293.3 38,296.3 37.9,299.3 C37.8,302.1 37.1,304.8 33.5,304.9 C30.3,305 29.5,302.4 29.1,299.9 C27.5,289 27.7,278 27.5,267 C26.9,237.2 27.3,207.4 27.3,177.6 C27.3,174.7 27.6,171.8 27.8,167.9 C21.7,174.9 17.1,181.7 12.5,188.6 C11.6,190 10.6,191.3 9.7,192.7 C8,195.3 5.6,197.3 2.7,195.4 C-0.4,193.5 0.6,190.4 2.2,187.9 C7.5,179.4 13.3,171.3 19.4,163.4 C21.8,160.2 24.3,157.1 26.6,153.8 C30.4,148.5 32.7,148 37.4,152.4 C46.9,161.2 56.2,170.3 64.8,180.1 C66,181.5 67.2,182.8 68.4,184.2 C70.2,186.3 70.9,188.9 68.9,190.9 C66.6,193.1 63.9,192.4 61.9,190.2 C57.3,185.4 52.8,180.4 48.3,175.6 C45,172 41.8,168.5 38.4,164.8 Z" id="Shape" fill="#85B2D7"></path>
                <path d="M266.7,181.1 C263.7,182.9 260.1,181.1 257.1,182.9 C256.4,156.3 255.7,129.7 255,102.6 C252.1,104.5 250.8,107.4 249.1,109.8 C245.5,114.8 242.2,120 238.8,125.1 C237,127.8 234.4,129.2 231.6,127.4 C228.8,125.6 229.6,122.6 231.2,120.3 C239.1,108.7 247,97.3 255,85.8 C257.5,82.2 260.9,82.1 264,85 C266.8,87.6 269.2,90.6 271.8,93.4 C278.2,100.2 284.9,106.6 292.1,112.6 C294.3,114.5 296.5,116.8 293.7,119.7 C291.2,122.3 288.5,121 286.1,119.1 C278.5,113.2 271.8,106.2 264.3,98.5 C265.3,126.9 264.3,154 266.7,181.1 Z" id="Shape" fill="#85B2D7"></path>
                <path d="M71.1,397.1 C70.9,391.5 73.4,388 78.8,385.8 C87.2,382.3 95.8,381 104.9,380.9 C112.1,380.8 119.3,379.6 126.6,380.9 C134.7,382.4 142.1,389.7 142.1,397.1 C132.8,400.6 123.2,402.8 113.1,403.4 C99.4,404.2 85.9,405.2 73.6,397.4 C72.9,397 71.9,397.2 71.1,397.1 Z" id="Shape" fill="#E8E8E8"></path>
                <g id="arrow" transform="translate(78.000000, 41.000000)" fill="#E8E8E8">
                    <path d="M240.6,17.8 C236.2,21.6 234.3,26.1 231.1,29.7 C230.3,30.6 229.7,31.6 229,32.4 C227.1,34.6 224.7,36.2 222.1,34.2 C219.7,32.3 220.8,29.5 222.3,27.4 C227.9,19.6 233.5,11.8 239.3,4.1 C242.6,-0.2 244.6,0.1 248.8,3.3 C256.2,8.8 262.9,15 269,21.8 C271.2,24.2 275.4,27.3 271.1,30.9 C267.1,34.3 264.3,30.3 262.1,27.6 C258.6,23.4 255.4,19.1 249.7,16.3 C250.2,24.2 250.7,31.4 251.2,38.6 C251.9,48.9 253.1,59.1 252.8,69.4 C252.7,71.7 251.7,73.3 249.5,73.8 C247.1,74.4 245.7,72.8 244.8,70.9 C244.2,69.7 243.8,68.4 243.8,67.1 C244.2,53.1 241.8,39.3 241.7,25.4 C241.9,23.2 241.2,20.9 240.6,17.8 Z" id="Shape"></path>
                    <path d="M17.7,91.2 C13.8,94.4 12.4,98.5 10.1,101.9 C8.1,105 5.4,106.2 2.5,104.5 C-0.7,102.6 0.9,99.5 2.5,97.1 C7.1,90.4 11.7,83.7 16.5,77.1 C20.1,72.2 21.4,72.4 26.5,76 C32.8,80.4 38.8,85 44.4,90.2 C46.5,92.1 49.5,94.4 46.6,97.7 C43.9,100.7 41.1,98.8 38.7,97 C34.9,94.2 32.1,90 27.1,87.7 C27.1,98.9 25.4,109.9 25.9,120.9 C26.1,124.4 25.9,127.9 25.9,131.4 C25.9,133.7 24.9,135.3 22.7,135.9 C20.3,136.5 19,134.9 17.9,133.1 C16.8,131.3 17,129.3 16.9,127.3 C16.3,115.5 18.9,103.8 17.7,91.2 Z" id="Shape"></path>
                   <animateTransform
                        attributeName="transform"
                        type="translate"
                        from="64, 58" 
                        to="64, 0"
                        dur="0.8s"
                        repeatCount="indefinite"
                    />
                    <animate id="animation1"
                        attributeName="opacity"
                        from="0" to="1" dur="0.4s"
                        begin="0s;animation2.end" 
                    />
                    <animate id="animation2"
                        attributeName="opacity"
                        from="1" to="0" dur="0.4s" 
                        begin="animation1.end" 
                    />
                </g>
                <path d="M388,380 C390.7,387.9 389.2,391.7 381.9,394.5 C364.9,401.2 347.5,400.5 330.2,395.8 C322.9,393.8 322.7,392.7 323.1,381.9 C327.8,382.7 332.6,383.4 337.3,384.2 C354.6,387.4 371.6,386.9 388,380 Z" id="Shape" fill="#E8E8E8"></path>
                <path d="M321.9,342.8 C327.9,344.5 333.9,346.6 340,347.9 C354.1,350.8 368,348.2 381.7,344.6 C384.1,344 386.5,343.5 388.9,342.9 C388.9,346.9 389,350.9 389,354.9 C387,354.7 385.1,355.5 383.2,356 C374.5,358.5 365.8,360.8 356.6,361.1 C344.7,361.4 333.2,360 322,356 C321.5,353.3 323,350.4 320.9,347.9 C321.3,346.2 321.6,344.5 321.9,342.8 Z" id="Shape" fill="#E8E8E8"></path>
                <path d="M71.1,397.1 C71.9,397.2 72.9,397 73.5,397.4 C85.8,405.2 99.3,404.1 113,403.4 C123.1,402.8 132.6,400.6 142,397.1 C141.7,399.6 141.3,402 141.1,404.5 C140.9,407.9 138,408.2 135.8,408.9 C128.7,411.1 121.2,412.3 113.8,412.8 C102.5,413.5 91.2,413.6 80.1,410.6 C72.4,408.4 71.7,407.2 71.1,397.1 Z" id="Shape" fill="#CCCCCC"></path>
                <path d="M322,356 C333.2,360.1 344.7,361.4 356.6,361.1 C365.8,360.9 374.5,358.5 383.2,356 C385.1,355.5 387,354.7 389,354.9 C388.9,357.9 388.9,360.9 388.8,363.8 C375.9,367.4 363,370.5 349.4,370.1 C340,369.8 331.2,367.2 322.1,365.7 C322.1,362.6 322.1,359.3 322,356 Z" id="Shape" fill="#CCCCCC"></path>
                <path d="M388,380 C371.5,386.9 354.5,387.4 337.2,384.3 C332.5,383.4 327.7,382.7 323,382 C323,379 322.9,376.1 322.9,373.1 C326,373.6 329,374.2 332.1,374.7 C344.3,376.5 356.5,378.2 369,376.3 C375.6,375.3 381.5,372.3 388,371.1 C388.1,374 388.1,377 388,380 Z" id="Shape" fill="#CCCCCC"></path>
                <g id="Group-2" transform="translate(210.000000, 399.000000)">
                    <g id="coin1" transform="translate(0.000000, 26.000000)" opacity="0">
                        <path d="M2.1,12.1 C8.3,19.8 17.3,20.6 26.1,22 C41.9,24.5 57.4,22.1 72.8,19.1 C77,18.3 80.5,15.3 85,15.2 C85,16.2 85,17.1 85,18.1 C84.7,26 78.5,26.8 72.7,28.1 C71.7,28.3 70.8,28.5 69.8,28.7 C54.2,31.5 38.6,33.3 22.6,30.5 C15.5,29.2 9,26.7 2.1,25.1 C-0.3,20.7 1.9,16.4 2.1,12.1 Z" id="Shape" fill="#F59E23"></path>
                        <path d="M2.1,12.1 C3.7,8.6 7,7.2 10.2,6 C17.5,3.2 25,1.8 32.8,0.9 C45.4,-0.5 57.8,0.2 70.2,3 C75.4,4.2 79.8,6.6 83.2,10.7 C84.3,12 85.2,13.3 84.9,15.1 C80.5,15.2 77,18.2 72.7,19 C57.3,22 41.8,24.4 26,21.9 C17.3,20.6 8.2,19.8 2.1,12.1 Z" id="Shape" fill="#F8B71C"></path>
                        <animateTransform
                            id="coin1transition"
                            attributeName="transform"
                            type="translate"
                            from="0, -70" 
                            to="0, 26"
                            dur="0.5s"
                            begin="0s;coin3transition.end+3s"
                        />
                        <animate
                            attributeName="opacity"
                            from="1" 
                            to="1"
                            dur="4.9s"
                            begin="0s;coin3transition.end+3s"
                        />
                    </g>
                    <g id="coin2" transform="translate(0.000000, 13.000000)" opacity="0">
                        <path d="M2.1,12.1 C8.3,19.8 17.3,20.6 26.1,22 C41.9,24.5 57.4,22.1 72.8,19.1 C77,18.3 80.5,15.3 85,15.2 C85,16.2 85,17.1 85,18.1 C84.7,26 78.5,26.8 72.7,28.1 C71.7,28.3 70.8,28.5 69.8,28.7 C54.2,31.5 38.6,33.3 22.6,30.5 C15.5,29.2 9,26.7 2.1,25.1 C-0.3,20.7 1.9,16.4 2.1,12.1 Z" id="Shape" fill="#F59E23"></path>
                        <path d="M2.1,12.1 C3.7,8.6 7,7.2 10.2,6 C17.5,3.2 25,1.8 32.8,0.9 C45.4,-0.5 57.8,0.2 70.2,3 C75.4,4.2 79.8,6.6 83.2,10.7 C84.3,12 85.2,13.3 84.9,15.1 C80.5,15.2 77,18.2 72.7,19 C57.3,22 41.8,24.4 26,21.9 C17.3,20.6 8.2,19.8 2.1,12.1 Z" id="Shape" fill="#F8B71C"></path>
                        <animateTransform
                            id="coin2transition"
                            attributeName="transform"
                            type="translate"
                            from="0, -70" 
                            to="0, 13"
                            dur="0.5s"
                            begin="coin1transition.end+0.2s"
                        />
                        <animate
                            attributeName="opacity"
                            from="1" 
                            to="1"
                            dur="4.2s"
                            begin="coin1transition.end+0.2s"
                        />
                    </g>
                    <g id="coin3" opacity="0">
                        <path d="M2.1,12.1 C8.3,19.8 17.3,20.6 26.1,22 C41.9,24.5 57.4,22.1 72.8,19.1 C77,18.3 80.5,15.3 85,15.2 C85,16.2 85,17.1 85,18.1 C84.7,26 78.5,26.8 72.7,28.1 C71.7,28.3 70.8,28.5 69.8,28.7 C54.2,31.5 38.6,33.3 22.6,30.5 C15.5,29.2 9,26.7 2.1,25.1 C-0.3,20.7 1.9,16.4 2.1,12.1 Z" id="Shape" fill="#F59E23"></path>
                        <path d="M2.1,12.1 C3.7,8.6 7,7.2 10.2,6 C17.5,3.2 25,1.8 32.8,0.9 C45.4,-0.5 57.8,0.2 70.2,3 C75.4,4.2 79.8,6.6 83.2,10.7 C84.3,12 85.2,13.3 84.9,15.1 C80.5,15.2 77,18.2 72.7,19 C57.3,22 41.8,24.4 26,21.9 C17.3,20.6 8.2,19.8 2.1,12.1 Z" id="Shape" fill="#F8B71C"></path>
                          <animateTransform
                            id="coin3transition"
                            attributeName="transform"
                            type="translate"
                            from="0, -70" 
                            to="0, 0"
                            dur="0.5s"
                            begin="coin2transition.end+0.2s"
                        />
                        <animate
                            attributeName="opacity"
                            from="1" 
                            to="1"
                            dur="3.5s"
                            begin="coin2transition.end+0.2s"
                        />
                    </g>
                </g>
                <path d="M388.1,371 C381.6,372.2 375.7,375.2 369.1,376.2 C356.6,378.1 344.4,376.4 332.2,374.6 C329.1,374.1 326,373.6 323,373 C321.2,370.8 322.3,368.3 322.2,365.9 C331.3,367.4 340.1,370 349.5,370.3 C363.1,370.7 376,367.5 388.9,364 C388.7,366.3 389.8,368.8 388.1,371 Z" id="Shape" fill="#E8E8E8"></path>
                <path d="M162.2,137.2 C162.2,135.4 162,133.5 162.3,131.7 C162.6,129.5 163.9,128.1 166.3,128 C168.9,127.9 170.4,129.3 170.8,131.7 C171.3,135.5 171.7,139.3 171.8,143.1 C171.9,145.9 171.1,148.6 167.6,148.7 C164.2,148.8 163,146.3 162.5,143.6 C162.1,141.5 162.2,139.3 162.1,137.1 C162.1,137.2 162.2,137.2 162.2,137.2 Z" id="Shape" fill="#85B2D7"></path>
                <path d="M420,176.8 C419.9,178.9 420,181.1 419.6,183.2 C419.2,185.3 418,186.8 415.6,186.8 C413.4,186.8 412,185.6 411.7,183.7 C411,179.3 410,175 410.9,170.5 C411.4,167.8 412.7,165.8 415.8,166 C419,166.2 419.6,168.7 419.9,171.3 C420.1,173.1 419.9,174.9 419.9,176.7 C419.9,176.8 419.9,176.8 420,176.8 Z" id="Shape" fill="#85B2D7"></path>
                <path d="M163,164.7 C163,163.4 163,162.1 163,160.7 C163,158.1 163.7,156.1 166.8,155.9 C169.7,155.7 171.2,157.4 171.6,159.9 C172.2,163.1 172.6,166.5 172.6,169.7 C172.7,172.5 171.6,175.3 168.4,175.6 C164.8,175.9 163.7,173 163.3,170.1 C163,168.3 163.3,166.5 163.3,164.6 C163.2,164.7 163.1,164.7 163,164.7 Z" id="Shape" fill="#85B2D7"></path>
                <path d="M160.7,106.1 C160.6,103.6 161.3,101.5 164.2,101 C167.2,100.5 169.1,102 169.6,104.8 C170.2,107.9 170.7,111 170.7,114.1 C170.7,116.7 169.6,119.3 166.6,119.5 C163.7,119.7 162,117.7 161.6,114.9 C161,112.1 160.9,109.1 160.7,106.1 Z" id="Shape" fill="#85B2D7"></path>
                <path d="M412.2,261 C412.2,257.1 411.7,252.3 417.1,252.4 C421.9,252.5 421.7,257.2 421.7,260.9 C421.8,267.8 420.4,270.1 416.7,270 C413.3,269.9 412.2,267.7 412.2,261 Z" id="Shape" fill="#85B2D7"></path>
                <path d="M413.1,291.5 C413.1,290 413.1,288.5 413.1,287 C413.2,284.2 414.2,282.1 417.4,282 C420.5,281.9 421.8,284 421.9,286.8 C422,289.6 422,292.4 421.9,295.2 C421.7,298 421,300.7 417.5,300.7 C413.8,300.7 413,298 413,294.9 C413,293.7 413,292.6 413,291.4 C413,291.5 413.1,291.5 413.1,291.5 Z" id="Shape" fill="#85B2D7"></path>
                <path d="M420.9,234.9 C420.8,236.2 421,237.6 420.7,238.9 C420.2,241.1 419.1,242.9 416.4,242.9 C413.9,242.8 412.8,241.2 412.4,239.1 C411.9,236.5 411.4,233.8 411.5,231.2 C411.6,228.7 412.3,226.2 415.6,226 C419.1,225.8 420.2,228 420.7,230.9 C420.9,232.2 420.7,233.5 420.7,234.9 C420.8,234.9 420.9,234.9 420.9,234.9 Z" id="Shape" fill="#85B2D7"></path>
                <path d="M411.2,205.7 C411.2,204.4 411,203 411.2,201.8 C411.5,199.7 412.8,198.2 415.1,198 C417.4,197.8 419.1,199 419.5,201.1 C420.1,203.8 420.5,206.6 420.5,209.4 C420.4,212 419.2,214.4 416.3,214.7 C413.2,215 412,212.6 411.4,210.1 C411.1,208.7 411.1,207.2 411,205.7 C411.1,205.7 411.2,205.7 411.2,205.7 Z" id="Shape" fill="#85B2D7"></path>
                <path d="M172.1,195.9 C169.1,196.3 166.2,196.6 163.2,197 C163.2,193.5 163,190.1 163.3,186.6 C163.5,184.2 164.6,182 167.6,182.1 C170.7,182.2 171.9,184.2 172,187 C172,190 172,193 172.1,195.9 Z" id="Shape" fill="#85B2D7"></path>
                <path d="M239.6,233.5 C237.5,234.3 235.4,234.1 233.3,233.6 C230.3,232.9 227.8,233.5 227.1,236.7 C226.4,239.9 228.6,241.4 231.4,242.3 C233.9,243.1 236.4,243.1 238.8,242.8 C243.9,242.2 248.7,241.1 253.6,244.5 C256,246.2 259.2,244 258.7,241.2 C258.1,237.9 259.9,236.6 261.5,234.5 C267.1,227.3 265.2,219.6 257,215.5 C250.9,212.4 244.5,212.6 238,213.4 C236.9,213.6 235.6,214 234.6,213.8 C232,213.2 229.6,211.3 229.6,209 C229.6,207 232.7,208.2 234.4,208 C236.2,207.8 238.1,208 239.9,208.1 C242.5,208.3 244.2,207 244.5,204.6 C244.8,202.2 243.4,200.6 241,199.9 C235.9,198.4 230.8,199.1 225.6,199.4 C224.6,199.5 223.7,199.9 222.7,200 C221.3,200.1 219.6,200.1 219.5,198.5 C219.3,196.4 221.3,197.2 222.5,197 C246.9,193.4 271.4,189.8 295.8,186.1 C301.4,185.2 305.8,188.2 310.4,190.3 C329.7,199.4 348.8,208.8 368,217.9 C375.3,221.4 382.8,224.5 391.2,229.3 C382.3,230.7 374.8,231.8 367.4,233 C348.1,236.1 328.8,239.2 309.5,242.4 C282.2,246.9 254.9,251.5 227.6,256.1 C212.9,258.6 198.2,261 183.4,263.5 C177.2,264.5 171.8,264.3 166,260.4 C157.9,254.9 148.6,251.4 140.2,246.3 C125.7,237.5 109.7,231.7 93.9,225.5 C93.1,225.2 91.8,225.4 91.4,223.3 C131,212.5 171.3,204.8 212,198.3 C212.5,201.9 211.5,204.5 208.7,206.9 C205.3,209.9 204.2,213.7 205.9,218.2 C207.6,222.6 211,224.7 215.4,225.1 C218.2,225.4 221.1,225.3 223.9,225 C231.9,224 235.2,225.7 239.6,233.5 Z" id="Shape" fill="#E8E8E8"></path>
                <path d="M388.9,280.9 C370.3,287.8 351.4,287.8 332.3,283 C331,282.7 329.8,282.3 328.6,281.7 C326.6,280.8 323.5,280.6 323.3,277.8 C323.1,274.8 325.8,273.2 328,272 C334.6,268.3 341.7,266.1 349.3,266 C358.6,265.9 367.9,265.4 376.9,268.1 C379.4,270.2 382.8,270.7 385.5,272.6 C388.5,274.9 389.7,277.3 388.9,280.9 Z" id="Shape" fill="#E8E8E8"></path>
                <path d="M388.9,334 C383.6,334.4 378.7,336.6 373.5,337.7 C357.6,341.2 342,341.7 326.8,334.8 C325.3,334.1 323.7,333.5 322.4,332.5 C320,330.6 320.8,327.8 321.2,325.6 C321.8,322.9 324.1,324.9 325.3,325.2 C345.2,329.3 365,329.6 384.8,324.8 C387.4,324.2 389,323.8 389.1,327.1 C389.1,329.4 389,331.7 388.9,334 Z" id="Shape" fill="#E8E8E8"></path>
                <path d="M388.9,297.9 C374.3,302.8 359.2,302.3 344.1,301.9 C337.1,301.7 330.4,300.1 323.8,297.6 C319.8,296.1 320.6,293.1 321.2,290.7 C322,287.4 324.5,289.8 326,290.2 C344.6,296.2 363.3,296.7 382.3,292.1 C388.9,290.5 388.9,290.5 389,297 C389,297.3 389,297.6 388.9,297.9 Z" id="Shape" fill="#E8E8E8"></path>
                <path d="M241.7,222.3 C246.6,221.7 250,221.9 253.2,223.3 C254.6,223.9 255.9,224.9 255.8,226.6 C255.7,228.4 254.2,229.4 252.9,230.4 C251.3,231.5 250.2,230.5 249,229.4 C246.8,227.3 244.6,225.1 241.7,222.3 Z" id="Shape" fill="#E8E8E8"></path>
                <path d="M218.5,216.9 C216.6,216.5 214.4,216.7 214.3,214.3 C214.2,212.5 215.8,211.2 217.5,211.2 C219.6,211.3 221.3,213 221.6,214.9 C221.9,216.9 219.7,216.6 218.5,216.9 Z" id="Shape" fill="#E8E8E8"></path>
                <path d="M321,309.9 C320.7,307.4 321,306 324.7,307 C344.4,312.8 364.3,312.5 384.2,308 C388.7,307 389.6,308 389,312.5 C388.7,314.5 387.5,314.7 386,315.2 C374.5,318.9 362.8,320 350.8,319.2 C343,318.7 335.2,318.3 327.6,316.9 C321.8,315.9 320.9,314.9 321,309.9 Z" id="Shape" fill="#E8E8E8"></path>
                <path d="M168.1,28.5 C168.1,42 168.1,54.9 168.1,67.9 C168.1,69.4 168.1,70.9 168.1,72.4 C168.1,74.7 167.6,76.8 164.8,77 C162.1,77.3 160.5,76.3 159.9,73.3 C159.4,70.7 159.2,68 159.2,65.4 C159.2,53.5 159.2,41.6 159.2,28.1 C155.3,32.1 152.4,35 149.5,37.9 C147.5,39.9 145.2,40.9 142.9,38.9 C140.5,36.8 140.8,34 142.9,31.8 C148.2,26.3 153.6,20.8 159,15.4 C161.2,13.2 164,13.1 166.3,14.9 C172,19.2 177.5,23.8 183,28.4 C185,30.1 185.9,32.2 183.9,34.5 C182.1,36.6 179.9,36.4 177.6,35 C174.5,33.2 172.2,30.1 168.1,28.5 Z" id="Shape" fill="#E8E8E8"></path>
                <path d="M418,100.1 C418,114.7 418,128.8 418,142.9 C418,146 417.4,148.8 413.7,148.9 C409.8,149 409.2,146 409.2,143 C409.1,131.5 409.1,120 409,108.6 C409,106.8 409.7,104.4 407.8,103.5 C405.6,102.5 405,105.1 403.8,106.3 C401.7,108.5 399.4,110.3 396.5,107.8 C393.8,105.5 395.1,102.9 396.9,100.8 C400.5,96.6 404.2,92.6 407.9,88.6 C410.7,85.7 413.5,85.2 417,88.2 C422.1,92.6 428.3,95.9 433.2,100.6 C435.1,102.4 437,104.3 434.8,107 C432.7,109.7 430.2,109 427.8,107.3 C424.6,104.9 421.4,102.6 418,100.1 Z" id="Shape" fill="#E8E8E8"></path>
            </g>
        </g>
    </g>
</svg>