<?xml version="1.0" encoding="UTF-8"?>
<svg width="582px" height="592px" viewBox="0 0 582 592" version="1.1" xmlns="http://www.w3.org/2000/svg" xmlns:xlink="http://www.w3.org/1999/xlink">
    <!-- http://www.hatchet.com.au -->
    <title>Custom Reporting - DARK - Animated</title>
    <desc>Copyright - Hatchet Pty Ltd</desc>
    <defs></defs>
    <style>
        #draw path {
            fill-opacity: 0;
            stroke: #DCDCDC;
            stroke-width: 10;
            stroke-dasharray: 870;
            stroke-dashoffset: 870;
            animation: draw 5s infinite linear;
        }

        @keyframes draw {
            to {
                stroke-dashoffset: 0;
                stroke: #1EB771;
            }
        }
    </style>
    <g id="Page-1" stroke="none" stroke-width="1" fill="none" fill-rule="evenodd">
        <g id="custom-reporting-DARK" fill-rule="nonzero">
            <g id="dark">
                <path d="M438.3,549.3 C495.4,514.6 539.9,461.3 563.2,398.7 C586.9,335.1 587.6,263.4 565.3,199.3 C543.3,136.1 499.7,81.3 443,45.7 C385.8,9.7 316.6,-5.5 249.6,2.9 C183.4,11.2 121.2,42 74.6,89.7 C68.8,95.7 63.2,101.9 57.9,108.4 C54.2,112.8 60.6,119.2 64.3,114.8 C105.5,65 162.3,29.7 225.6,16.1 C289.7,2 358.3,10.9 416.8,41 C474.4,70.7 520.9,119.7 547.5,178.7 C574.6,238.8 579.7,308 562.4,371.5 C545.4,433.9 506.8,489.8 454.4,527.7 C447.7,532.6 440.8,537.1 433.7,541.4 C428.8,544.5 433.3,552.3 438.3,549.3 Z" id="Shape" fill="#DB373E"></path>
                <path d="M0.4,372.2 C26.8,470 103.2,549.5 200.3,578.9 C228.1,587.3 257,591.4 286,591.5 C291.8,591.5 291.8,582.5 286,582.5 C236.7,582.3 188,569.8 145.1,545.5 C102.2,521.2 65.9,485.9 40.5,443.7 C26.6,420.6 16.1,395.8 9.1,369.8 C7.6,364.2 -1.1,366.6 0.4,372.2 Z" id="Shape" fill="#DB373E"></path>
                <path d="M133.7,509.8 C196.2,554.2 276.4,569.3 350.8,550.4 C422.2,532.3 484,483.4 518.3,418.3 C538.1,380.6 548.3,338.5 548.5,296 C548.5,290.2 539.5,290.2 539.5,296 C539.2,368.3 508.2,437.7 454.1,485.8 C399,534.7 323.6,557.4 250.6,547.1 C210.1,541.4 171.6,525.7 138.2,502.1 C133.5,498.7 129,506.5 133.7,509.8 Z" id="Shape" fill="#AFAFAF"></path>
                <path d="M362.2,44.7 C272,17.7 172.2,41.4 104.2,106.6 C85.6,124.4 69.8,145 57.1,167.4 C54.2,172.4 62,177 64.9,171.9 C109.5,93.4 193.6,43.2 284.1,42.5 C309.8,42.3 335.2,46 359.8,53.4 C365.4,55.1 367.7,46.4 362.2,44.7 Z" id="Shape" fill="#AFAFAF"></path>
            </g>
            <g id="draw" transform="translate(141.000000, 214.000000)" stroke="#DCDCDC" stroke-linecap="square" stroke-width="10">
                <path d="M0.5,180.5 C6.3540087,175.845756 10.187342,171.679089 12,168 C21.1044732,149.520965 26.0696888,133.283391 33,132 C50,123 51.5,192 82.5,190 C101.761231,188.147959 104.92701,128.053351 123.5,89.5 C129.997979,76.0116562 138.5,63 151,61 C171.127309,61 171.127309,88.4976887 186.5,81 C199.726325,74.5491539 217.441614,37.4937757 251.5,11 C259.352362,4.89170358 274.352362,1.39170358 296.5,0.5" id="Line"></path>
            </g>
            <g id="custom_reporting_dark" transform="translate(100.000000, 174.000000)">
                <path d="M21.8,20.5 C18.6,25.5 15.7,30.1 12.7,34.7 C11.8,36.1 10.9,37.5 10,38.9 C8.3,41.4 6.1,43.5 2.9,41.6 C-0.3,39.6 0.8,36.8 2.4,34.2 C8.4,25 14.3,15.7 20.4,6.5 C21.4,5 22.3,3.3 23.6,2.1 C26,-0.1 28.6,0.1 30.5,2.7 C38.7,14.2 46.8,25.8 54.9,37.3 C55.5,38.1 56.1,38.9 56.5,39.8 C57.7,42.3 58.1,44.8 55.5,46.4 C52.9,48.1 50.7,46.8 49.1,44.5 C45.2,38.9 41.4,33.2 37.5,27.6 C36,25.4 34.5,23.2 33,21 C31,22.2 31.8,23.9 31.9,25.2 C34.1,95.5 31.8,165.9 33.9,236.2 C34.2,246 35,255.8 35.5,265.6 C35.6,268.1 36.2,269.5 39.2,269.5 C77.9,269.6 116.4,273.3 155.1,272.1 C209.9,270.3 264.8,272.5 319.6,270.2 C323.4,270 327.2,270.4 331.4,269.2 C328.5,266.3 324.8,265.4 321.9,263.4 C320.4,262.4 318.7,261.5 317.4,260.3 C315.6,258.7 315.2,256.5 316.7,254.5 C318.1,252.6 320.2,252.2 322.1,253.3 C330.7,258.4 340,262.2 349.1,266.3 C353.4,268.2 353.2,271.6 349.7,274.8 C344.5,279.6 339.3,284.6 334.8,290.2 C333.8,291.5 332.6,292.7 331.5,293.9 C329.5,296 327.1,297.4 324.5,295.2 C321.9,293 322.9,290.4 324.7,288.1 C327,285.3 329.4,282.5 331.7,279.8 C330.9,278.1 329.6,278.7 328.6,278.7 C314.3,279.1 300,279.6 285.6,279.8 C282,279.9 281.4,281.3 281.8,284.3 C282.1,286.6 282.4,288.9 282.5,291.3 C282.6,294.2 281.9,296.9 278.6,297.3 C275.2,297.7 274,295.2 273.6,292.3 C273.2,289.7 273.1,287 272.9,284.3 C272.7,281.5 271.7,280.3 268.6,280.3 C252.4,280.3 236.3,280.1 220.1,279.9 C217,279.8 215.8,280.7 216.5,283.9 C217,286.3 217.2,288.8 217.5,291.3 C217.8,294.2 217.4,296.9 214.1,297.6 C210.8,298.3 209.3,295.9 208.7,293 C208.1,289.9 207.5,286.8 207.4,283.6 C207.3,280.8 206.6,279.9 203.7,280 C185.7,280.4 167.7,280.7 149.7,280.9 C146,280.9 144,281.4 145.3,285.9 C146.1,288.6 146,291.5 146.2,294.3 C146.3,296.9 145.2,299 142.5,299.4 C139.7,299.8 138,298.1 137.6,295.5 C137,292.1 136.4,288.6 136.5,285.1 C136.5,282.4 135.9,281.3 133,281.3 C117.3,280.9 101.7,280.3 86,279.7 C82.4,279.5 80.2,279.8 81.5,284.4 C82.3,287.1 82.1,290 82.3,292.8 C82.5,295.9 82,298.8 78.3,299.1 C74.6,299.4 73.7,296.5 73.3,293.5 C72.9,290.2 72.4,286.9 72.4,283.6 C72.4,280.9 72.1,279.3 68.7,279.2 C57.4,278.8 46,278.3 34.7,279 C29,279.3 27.3,278.4 27,272.7 C26.2,259.7 25.4,246.8 25,233.8 C24.9,229.3 23.9,227.1 18.8,227.6 C15.2,228 10.1,228.3 10.2,222.8 C10.4,217.4 15.4,218.5 18.8,218.7 C23.1,219 24.5,217.7 24.4,213.2 C24,197.9 24,182.5 24.2,167.2 C24.3,162.7 22.8,161.7 18.8,162.5 C17,162.8 15.1,162.8 13.3,162.8 C10.6,162.8 8.2,161.9 8,158.8 C7.8,155.7 10,154.3 12.7,154 C15.3,153.6 18,153.5 20.7,153.5 C23.3,153.6 24.2,152.7 24.1,150 C24,134 24,118 24.1,102 C24.1,99.1 23,98.6 20.5,99.1 C18.2,99.6 15.9,100 13.6,100.3 C11.2,100.5 9.3,99.4 8.8,96.9 C8.3,94.4 9.6,92.6 11.9,91.9 C14.8,91.1 17.7,90.6 20.7,90 C22.6,89.6 24.1,89.1 24,86.6 C23.5,65.1 23.2,43.6 22.8,22.1 C22.8,21.7 22.5,21.5 21.8,20.5 Z" id="Shape" fill="#6D6D6D"></path>
                <path d="M231.1,125 C232.6,121.8 233.6,118.5 234.2,115 C239.5,98.4 244.7,81.9 250,65.3 C251.9,59.3 254,53.4 255.9,47.4 C258.9,47.6 261.8,47.9 264.8,48.1 C260.3,62 255.9,75.9 251.4,89.9 C248.6,99.6 245.7,109.3 242.9,118.9 C239.8,128.6 236.8,138.3 233.7,148 C230.8,147.5 227.9,147 224.9,146.5 C227,139.4 229,132.2 231.1,125 Z" id="Shape" fill="#DB3C42"></path>
                <path d="M142.9,183.1 C145.9,185.7 149,188.4 152,191 C152.4,191.4 152.8,191.9 153.3,192.3 C151.6,194.8 149.9,197.3 148.2,199.8 C145.8,197.9 143.5,195.9 141.1,194 C124.8,179.1 109,163.6 91.7,149.7 C93.2,147.1 94.7,144.6 96.1,142 C110.5,152.8 123.1,165.6 136.5,177.6 C138.6,179.4 140.7,181.3 142.9,183.1 Z" id="Shape" fill="#DB3C42"></path>
                <path d="M273.1,42.9 C274.1,40.1 275.5,37.4 275.4,34.3 C282.3,37 289.1,40.1 295.1,44.5 C295.8,45 297,45.1 297.9,45.3 C300.9,47.8 304.5,49.3 308,50.8 C314.3,54 320.6,57.1 326.9,60.3 C325.6,62.9 324.3,65.6 323,68.2 C314.4,64 305.8,59.9 297.3,55.7 C293.9,53.8 290.5,51.8 287.1,49.9 C282.8,46.8 277.9,44.8 273.1,42.9 Z" id="Shape" fill="#DB3C42"></path>
                <path d="M212,160.8 C213,163.8 214.1,166.7 215.1,169.7 C201.6,179.8 189.1,190.9 176,201.5 C174.6,198.8 173.3,196.1 171.9,193.4 C185.1,182.4 198.2,171.2 212,160.8 Z" id="Shape" fill="#DB3C42"></path>
                <path d="M69.2,143.8 C71.1,146.1 73.1,148.4 75,150.6 C65.7,159.6 55.9,168.2 48.2,178.7 C46.5,181 44.3,182.2 41.8,180.2 C39.4,178.3 39.7,175.8 41.2,173.5 C44.2,168.9 47.9,164.8 51.8,160.9 C57.5,155.2 63.4,149.5 69.2,143.8 Z" id="Shape" fill="#DB3C42"></path>
            </g>
            <g id="points" fill="#87B2D6" transform="translate(100.000000, 174.000000)">
                <path d="M148.2,199.8 C149.9,197.3 151.6,194.8 153.3,192.3 C159.7,189.1 166,189.5 172,193.4 C173.4,196.1 174.7,198.8 176.1,201.5 C175.7,212.9 170.5,218.6 160.7,217.9 C153.8,217.4 150,213.1 148.1,206.9 C148.1,204.5 148.1,202.2 148.2,199.8 Z"></path>
                <path d="M96.1,142 C94.6,144.6 93.1,147.1 91.7,149.7 C86.3,152.2 80.8,152.9 75.1,150.7 C73.1,148.4 71.2,146.1 69.3,143.9 C68.7,138.2 68.1,132.4 72.9,128.1 C77.3,124.1 82.6,122.9 88.1,125.4 C93.4,127.8 96.3,132 96.1,138 C96.1,139.3 96.1,140.6 96.1,142 Z"></path>
                <path d="M327,60.3 C335.6,55.3 341.3,55.2 346.5,60.1 C351.1,64.4 352.4,70.9 349.7,76.5 C346.9,82.3 341.3,85 334.4,84.1 C329.1,83.3 324.3,78.4 323.3,72.8 C323.1,71.3 323.1,69.8 323,68.3 C324.3,65.6 325.7,62.9 327,60.3 Z"></path>
                <path d="M225,146.6 C227.9,147.1 230.8,147.6 233.8,148.1 C238.9,152.6 241.7,158 239.5,164.8 C236.6,173.9 225.7,177.2 218,171.5 C217.1,170.8 216.1,170.2 215.1,169.6 C214.1,166.6 213,163.7 212,160.7 C213.1,153.1 216.8,147.8 225,146.6 Z"></path>
                <path d="M264.8,48.2 C261.8,48 258.9,47.7 255.9,47.5 C248.4,42 246.1,36.4 248.6,29.8 C251,23.4 256.8,20.1 264.2,21 C270.2,21.7 274.4,26.7 275.4,34.3 C275.5,37.4 274,40.1 273.1,42.9 C270.6,45.1 267.9,47 264.8,48.2 Z"></path>
                <animate attributeName="fill"
                    from="#87B2D6" to="#DB3C42" dur="5s"
                    repeatCount="indefinite" 
                />
            </g>
        </g>
    </g>
</svg>