<?xml version="1.0" encoding="UTF-8"?>
<svg width="582px" height="592px" viewBox="0 0 582 592" version="1.1" xmlns="http://www.w3.org/2000/svg" xmlns:xlink="http://www.w3.org/1999/xlink">
    <!-- http://www.hatchet.com.au -->
    <title>Database Software - Light - Animated</title>
    <desc>Copyright - Hatchet Pty Ltd</desc>
    <defs></defs>
    <g id="Page-1" stroke="none" stroke-width="1" fill="none" fill-rule="evenodd">
        <g id="database-software" fill-rule="nonzero">
            <g id="outside">
                <path d="M438.3,549.3 C495.4,514.6 539.9,461.3 563.2,398.7 C586.9,335.1 587.6,263.4 565.3,199.3 C543.3,136.1 499.7,81.3 443,45.7 C385.8,9.7 316.6,-5.5 249.6,2.9 C183.4,11.2 121.2,42 74.6,89.7 C68.8,95.7 63.2,101.9 57.9,108.4 C54.2,112.8 60.6,119.2 64.3,114.8 C105.5,65 162.3,29.7 225.6,16.1 C289.7,2 358.3,10.9 416.8,41 C474.4,70.7 520.9,119.7 547.5,178.7 C574.6,238.8 579.7,308 562.4,371.5 C545.4,433.9 506.8,489.8 454.4,527.7 C447.7,532.6 440.8,537.1 433.7,541.4 C428.8,544.5 433.3,552.3 438.3,549.3 Z"  fill="#DB373E"></path>
                <path d="M0.4,372.2 C26.8,470 103.2,549.5 200.3,578.9 C228.1,587.3 257,591.4 286,591.5 C291.8,591.5 291.8,582.5 286,582.5 C236.7,582.3 188,569.8 145.1,545.5 C102.2,521.2 65.9,485.9 40.5,443.7 C26.6,420.6 16.1,395.8 9.1,369.8 C7.6,364.2 -1.1,366.6 0.4,372.2 Z"  fill="#DB373E"></path>
                <path d="M133.7,509.8 C196.2,554.2 276.4,569.3 350.8,550.4 C422.2,532.3 484,483.4 518.3,418.3 C538.1,380.6 548.3,338.5 548.5,296 C548.5,290.2 539.5,290.2 539.5,296 C539.2,368.3 508.2,437.7 454.1,485.8 C399,534.7 323.6,557.4 250.6,547.1 C210.1,541.4 171.6,525.7 138.2,502.1 C133.5,498.7 129,506.5 133.7,509.8 Z"  fill="#666666"></path>
                <path d="M362.2,44.7 C272,17.7 172.2,41.4 104.2,106.6 C85.6,124.4 69.8,145 57.1,167.4 C54.2,172.4 62,177 64.9,171.9 C109.5,93.4 193.6,43.2 284.1,42.5 C309.8,42.3 335.2,46 359.8,53.4 C365.4,55.1 367.7,46.4 362.2,44.7 Z"  fill="#666666"></path>
            </g>
            <g id="server" transform="translate(97, 95)">
                <path d="M6.9,320.3 C4.4,310.6 3.5,300.7 2.7,290.8 C1.4,274.2 0.5,257.6 1.1,240.9 C1.2,238.9 1.4,236.9 1.7,234.9 C3.6,222.3 5.6,220.6 18,219.1 C80.5,211.3 143.3,211.6 206.1,213 C248.2,214 290.4,214.7 332.5,213.5 C337.5,213.4 342.5,213.8 347.5,214.1 C354.8,214.5 359.5,218.3 362.2,225 C365.8,234 366.4,243.5 366.7,253 C367.1,268.1 367.1,283.3 366.9,298.5 C366.8,307.9 368.7,317.1 368.7,326.4 C368.7,334.8 365.2,339.3 356.9,340.4 C347.3,341.7 337.6,341.2 328,340.7 C285.7,338.5 243.4,337.2 201.1,338.5 C152.3,339.9 103.5,341.5 54.8,344.1 C47,344.5 39.2,345.3 31.4,345.9 C28.7,346.1 26,346.5 23.4,346.2 C12.2,345.1 7,341.4 8.3,330 C10.1,329.8 11.9,329.3 13.7,329.4 C41.7,330.5 69.7,330.4 97.7,329.8 C105.8,329.7 114,328.8 122.1,328.2 C125.1,328 127.4,326.8 127.2,323.3 C127,320.1 124.5,319.4 121.8,319.3 C120.1,319.2 118.5,319.2 116.8,319.4 C100.4,320.8 83.9,321.4 67.4,321.2 C47.2,320.9 27,320.6 6.9,320.3 Z M313.2,295.1 C327.3,295.1 345.1,285.8 344.8,261.5 C344.6,242.5 329.3,234.2 314.1,234.3 C294.7,234.4 282.3,246.4 281.2,265.4 C280.5,280.2 297,295.1 313.2,295.1 Z M349.1,318.2 C349,313.9 346.1,310.9 342.4,311.1 C339.2,311.3 335.4,315.7 335.4,319.1 C335.5,322.6 338.8,325.9 342.2,325.8 C346,325.7 349.2,322.2 349.1,318.2 Z M315.6,326.8 C319.2,326.8 322,323.9 322,320.5 C322,317.2 318.1,313.8 314.4,314 C310.9,314.2 308.9,315.9 308.9,319.7 C308.9,323.9 311.6,326.9 315.6,326.8 Z M289.9,325.2 C295.5,325 297.7,322.8 297.6,319.2 C297.5,315.7 294.9,313.2 291.3,313.3 C287.8,313.4 285.2,315.9 285.3,319.5 C285.4,323.1 287.7,325.3 289.9,325.2 Z M152.7,252.4 C149.3,253.4 147.3,255.5 147.4,258.8 C147.5,261.3 148.9,263.3 151.9,262.9 C155.3,262.5 156.6,259.9 156.8,257 C156.9,254.4 155.1,252.9 152.7,252.4 Z M198.6,252.2 C195.9,252.5 194.3,254.1 194.2,256.7 C194.1,259.4 195.8,260.9 198.5,261 C201.2,261 202.4,259.1 202.6,256.9 C202.9,254.2 201.2,252.7 198.6,252.2 Z M171.6,257.8 C171,255.5 170,253.7 167.3,253.9 C164.5,254.1 163,255.7 163.2,258.4 C163.4,260.8 164.8,262.6 167.3,262.4 C169.9,262.3 171.3,260.5 171.6,257.8 Z M214.8,260 C217.3,259.8 218.8,258.5 219,256 C219.2,253.3 218,251.4 215.2,251.2 C212.7,251 211.3,252.6 211,255.1 C210.8,257.8 212.1,259.4 214.8,260 Z M197.8,282.4 C195.5,283 193.8,284 193.9,286.6 C194,289.3 195.5,291 198.2,290.8 C200.7,290.6 201.9,288.9 201.9,286.4 C201.9,283.8 200.1,282.9 197.8,282.4 Z M186.9,287.8 C186.8,285.1 185.5,283.9 183.1,284 C180.6,284.1 179.1,285.6 179.2,288.1 C179.3,290.4 180.8,291.8 183.1,291.7 C185.6,291.7 186.8,290 186.9,287.8 Z M170.4,291.9 C173.1,291.8 174.1,290.3 173.9,287.9 C173.7,285.6 172.3,284.2 170,284.2 C167.2,284.2 166.2,286.3 166.3,288.6 C166.5,290.9 168.3,291.9 170.4,291.9 Z M157.9,285 C157.6,282.8 156.4,281.2 154.1,281.2 C151.6,281.2 150,282.8 150.2,285.3 C150.3,287.6 151.9,288.9 154.2,288.9 C156.4,288.7 157.6,287.2 157.9,285 Z M186.9,272.5 C186.3,270.8 185.2,269.1 182.9,269.3 C180.6,269.4 179.2,270.8 179.2,273.1 C179.2,275.6 180.8,277.1 183.4,276.9 C185.6,276.7 186.8,275.1 186.9,272.5 Z M170,271.9 C169.9,269.9 168.3,268.5 165.9,268.6 C163.7,268.6 162.2,270.3 162.3,272.5 C162.4,274.7 163.9,276 166.2,276.1 C168.6,276.1 169.9,274.9 170,271.9 Z M212.2,290.6 C213.9,290.1 215.8,289.5 216,287 C216.1,284.7 215.3,283.1 212.8,283 C210.3,282.8 208.5,284 208.4,286.5 C208.2,288.7 209.7,290.1 212.2,290.6 Z M201.8,271.4 C201.4,269.4 200.4,267.6 198.1,267.6 C195.8,267.6 194,268.8 194.1,271.5 C194.1,274 195.5,275.1 197.8,275 C200.1,275 201.3,273.7 201.8,271.4 Z M182.3,262.1 C184.8,262.1 186.1,261 186.1,258.6 C186.1,256.5 185.2,255.2 183,255 C180.7,254.9 179.2,255.8 179,258.3 C178.8,260.6 179.9,262 182.3,262.1 Z"  fill="#666667"></path>
                <path d="M6.5,187 C1.8,160.2 0.5,133.1 1.2,105.9 C1.2,104.2 1.5,102.6 1.8,100.9 C3.6,89.4 5.8,87.5 17.3,86 C80.7,78.1 144.3,78.4 207.9,79.9 C249.4,80.9 290.9,81.5 332.3,80.3 C337.4,80.2 342.6,80.6 347.8,80.9 C354.7,81.3 359.2,85 361.8,91.2 C365.6,100.3 366.2,110 366.5,119.6 C366.9,134.8 366.9,149.9 366.7,165.1 C366.6,174.5 368.5,183.7 368.5,193 C368.5,201.7 365,206.1 356.3,207.1 C346.9,208.3 337.3,207.8 327.8,207.3 C274.9,204.4 221.9,203.8 168.9,206 C131.4,207.5 94,209 56.6,210.6 C46.6,211 36.7,212.1 26.7,212.7 C24.4,212.9 21.9,213.1 19.7,212.5 C9.3,209.4 7.6,207.8 8,195.7 C11.6,194.4 15.2,195.4 18.9,195.5 C51.3,195.7 83.8,196.6 116.2,194.6 C118.5,194.5 120.8,194.2 123.1,193.8 C125.5,193.4 127,192 127.1,189.4 C127.1,186.7 125.3,185.5 123,185.2 C120.9,184.9 118.7,185 116.5,185.2 C87.1,187.5 57.7,187.4 28.3,186.3 C21.1,186.1 13.7,185.2 6.5,187 Z M313.2,160.1 C327.4,160.1 345.1,150.6 344.8,126.4 C344.6,107.3 329.2,99.2 314.1,99.3 C294.7,99.5 282.3,111.5 281.3,130.4 C280.5,145.3 297,160.1 313.2,160.1 Z M338.8,190.1 C343.5,190.2 347.9,186.1 347.9,181.5 C347.9,177.3 344.3,173.3 340.3,173.1 C336.1,172.9 331.1,178.2 331.1,182.6 C331.2,186.8 334.5,190 338.8,190.1 Z M293.9,181.9 C294,177 291.9,174.1 288.3,173.9 C284.8,173.8 280.2,178.2 280,181.8 C279.9,185.2 283.4,188.9 286.9,189.1 C291.2,189.3 293.9,186.5 293.9,181.9 Z M319,179 C318.8,176 317,173.5 313.1,173.1 C309.4,172.8 305.9,176.5 305.9,180.4 C305.9,184.5 308.5,187.1 312.4,187 C316.3,187 319,184.1 319,179 Z M156.9,127.3 C156.6,124.7 155.4,122.5 152.8,122.5 C149.6,122.6 147.7,125 147.4,128 C147.1,130.4 148.2,132.7 151.1,132.8 C155,133.1 155.9,130.1 156.9,127.3 Z M198.4,122.2 C195.8,122.7 194.2,124.3 194.3,126.9 C194.4,129.6 196.1,131.1 198.8,130.9 C201.7,130.7 202.8,128.6 202.6,126.1 C202.5,123.8 200.8,122.5 198.4,122.2 Z M171.6,127.8 C171,125.9 170.2,123.9 167.5,124 C164.7,124.1 163.1,125.6 163.2,128.3 C163.3,130.7 164.6,132.6 167.1,132.5 C169.7,132.5 171.2,130.6 171.6,127.8 Z M214.8,130 C217.3,129.8 218.8,128.5 219,126 C219.2,123.3 218,121.4 215.2,121.2 C212.7,121 211.3,122.6 211,125.1 C210.8,127.8 212.1,129.4 214.8,130 Z M201.9,157.3 C202,154.1 200.4,152.6 198.1,152.5 C195.8,152.4 194,153.6 193.9,156.3 C193.8,159 195.2,160.8 197.9,160.8 C200.5,160.9 201.7,159.2 201.9,157.3 Z M186.9,158.1 C186.9,155.4 185.8,154.1 183.4,154.1 C180.9,154.1 179.3,155.4 179.2,157.9 C179.1,160.2 180.6,161.7 182.8,161.8 C185.3,161.8 186.6,160.2 186.9,158.1 Z M174,157.8 C173.7,155.6 172.3,154 169.8,154.2 C167.3,154.4 166.4,156.4 166.4,158.4 C166.5,160.7 168.2,161.9 170.5,161.9 C173,161.9 174,160.5 174,157.8 Z M186.9,143 C186.5,140.8 185.3,139.3 183,139.3 C180.7,139.3 179.2,140.7 179.1,143 C179,145.5 180.6,147.1 183.1,147 C185.5,146.8 186.6,145.2 186.9,143 Z M154.1,151.1 C151.8,151.3 150.3,152.5 150.1,154.7 C149.9,157 151.3,158.6 153.5,158.8 C156,159 157.6,157.6 157.7,155 C157.9,152.7 156.4,151.5 154.1,151.1 Z M212,160.6 C214.2,160.2 216,159.2 215.9,156.5 C215.9,154.3 214.8,153.1 212.6,153 C210.1,152.9 208.3,154.1 208.3,156.6 C208.3,158.8 209.7,160.2 212,160.6 Z M170,142.9 C170.1,140 168.4,138.6 166.1,138.6 C163.8,138.5 162.4,140.2 162.4,142.4 C162.4,144.7 163.9,146 166.2,146.1 C168.4,146.2 169.9,145.1 170,142.9 Z M198,145.1 C199.7,145 201.5,144 201.7,141.7 C201.9,139.3 200.4,137.5 197.9,137.6 C195.8,137.6 194.2,138.8 194.1,141.3 C194,143.6 195.1,144.9 198,145.1 Z M186.1,128.3 C186,126 184.6,124.9 182.2,125 C179.7,125.1 178.8,126.7 179,129 C179.1,131.2 180.5,132.1 182.6,132.1 C185,132.1 186.1,130.7 186.1,128.3 Z"  fill="#666667"></path>
                <path d="M442.5,108.8 C442.1,111.3 441.8,113.9 438.4,114.1 C434.5,114.4 433.6,111.5 433.3,108.6 C432.4,99.7 429.7,91.4 426.2,83.2 C412.4,50.9 387.8,30.4 355.7,17.9 C344.7,13.6 333.7,9.2 321.5,9.7 C319.1,9.8 317.2,8.7 316.9,6.1 C316.5,3.4 318,1.8 320.4,0.8 C323.8,-0.6 327.1,0.4 330.2,1.1 C361.2,7.9 389.5,20.4 411.3,44.1 C427.6,61.8 438.6,82.5 442,106.8 C442.2,107.5 442.4,108.2 442.5,108.8 Z"  fill="#84B1D5"></path>
                <path d="M6.9,320.3 C27.1,320.6 47.2,320.9 67.4,321.1 C83.9,321.3 100.4,320.7 116.8,319.3 C118.5,319.2 120.1,319.1 121.8,319.2 C124.4,319.4 127,320 127.2,323.2 C127.4,326.6 125.1,327.8 122.1,328.1 C114,328.7 105.8,329.6 97.7,329.7 C69.7,330.2 41.7,330.3 13.7,329.3 C11.9,329.2 10.1,329.7 8.3,329.9 C7,326.8 6.6,323.6 6.9,320.3 Z"  fill="#050505"></path>
                <path d="M6.5,187 C13.7,185.2 21.1,186.1 28.3,186.4 C57.7,187.5 87.1,187.6 116.5,185.3 C118.6,185.1 120.8,185.1 123,185.3 C125.3,185.6 127.1,186.8 127.1,189.5 C127.1,192.1 125.5,193.5 123.1,193.9 C120.8,194.3 118.5,194.6 116.2,194.7 C83.8,196.7 51.4,195.9 18.9,195.6 C15.3,195.6 11.6,194.5 8,195.8 C6.7,193.1 6.9,190 6.5,187 Z"  fill="#050505"></path>
                <path d="M330.7,45.2 C343,46.2 353.7,50.6 364.1,55.9 C384.3,66.1 396.3,83.2 403.9,103.8 C405.5,108.2 406.9,112.6 408.3,117.1 C409.2,120 408.5,122.6 405.4,123.5 C402.4,124.4 400.8,122.3 399.9,119.7 C396.6,109.9 393.4,100.2 388.1,91.2 C375.1,68.9 354.9,58 330.1,54.2 C327.2,53.8 323.5,54.5 323.8,49.9 C324.5,45.9 327.9,45.4 330.7,45.2 Z"  fill="#84B1D5"></path>
                <path d="M349.1,318.2 C349.2,322.2 346,325.8 342.2,325.9 C338.8,326 335.5,322.7 335.4,319.2 C335.3,315.8 339.2,311.3 342.4,311.2 C346.2,310.9 349,313.9 349.1,318.2 Z"  fill="#AFAFAF"></path>
                <path d="M152.7,252.4 C155.1,252.9 156.9,254.4 156.8,257 C156.6,259.9 155.3,262.5 151.9,262.9 C148.9,263.3 147.5,261.3 147.4,258.8 C147.3,255.5 149.3,253.3 152.7,252.4 Z"  fill="#AFAFAF"></path>
                <path d="M198.6,252.2 C201.2,252.7 202.9,254.2 202.6,256.9 C202.4,259.1 201.2,261 198.5,261 C195.7,261 194.1,259.5 194.2,256.7 C194.3,254.1 195.9,252.5 198.6,252.2 Z"  fill="#AFAFAF"></path>
                <path d="M171.6,257.8 C171.3,260.4 169.9,262.2 167.3,262.5 C164.8,262.7 163.3,260.8 163.2,258.5 C163,255.8 164.5,254.2 167.3,254 C170,253.8 171,255.5 171.6,257.8 Z"  fill="#AFAFAF"></path>
                <path d="M197.8,282.4 C200.1,282.9 201.9,283.8 201.9,286.5 C201.9,289 200.7,290.7 198.2,290.9 C195.5,291.1 194,289.4 193.9,286.7 C193.8,283.9 195.6,283 197.8,282.4 Z"  fill="#AFAFAF"></path>
                <path d="M186.9,287.8 C186.8,290 185.6,291.6 183,291.7 C180.7,291.8 179.2,290.3 179.1,288.1 C179,285.6 180.5,284.2 183,284 C185.5,283.9 186.8,285.1 186.9,287.8 Z"  fill="#AFAFAF"></path>
                <path d="M170.4,291.9 C168.3,291.9 166.5,290.8 166.4,288.6 C166.3,286.3 167.3,284.2 170.1,284.2 C172.4,284.2 173.8,285.6 174,287.9 C174.1,290.3 173.1,291.8 170.4,291.9 Z"  fill="#AFAFAF"></path>
                <path d="M157.9,285 C157.6,287.3 156.4,288.8 154.1,288.9 C151.8,289 150.3,287.6 150.1,285.3 C150,282.8 151.5,281.2 154,281.2 C156.4,281.2 157.6,282.7 157.9,285 Z"  fill="#AFAFAF"></path>
                <path d="M186.9,272.5 C186.8,275.1 185.6,276.7 183.3,276.9 C180.8,277.1 179.2,275.6 179.1,273.1 C179.1,270.8 180.5,269.4 182.8,269.3 C185.3,269.1 186.3,270.7 186.9,272.5 Z"  fill="#AFAFAF"></path>
                <path d="M201.8,271.4 C201.3,273.7 200.1,275 197.8,275 C195.4,275 194.1,273.9 194.1,271.5 C194.1,268.8 195.8,267.6 198.1,267.6 C200.4,267.5 201.4,269.3 201.8,271.4 Z"  fill="#AFAFAF"></path>
                <path d="M182.3,262.1 C180,262 178.9,260.6 179,258.3 C179.1,255.8 180.6,254.9 183,255 C185.2,255.1 186.2,256.5 186.1,258.6 C186.1,261 184.7,262.1 182.3,262.1 Z"  fill="#AFAFAF"></path>
                <path d="M293.9,181.9 C293.8,186.6 291.1,189.3 286.9,189.1 C283.5,188.9 279.9,185.2 280,181.8 C280.1,178.1 284.7,173.7 288.3,173.9 C292,174.1 294,177 293.9,181.9 Z"  fill="#AFAFAF"></path>
                <path d="M198.4,122.2 C200.9,122.4 202.5,123.8 202.7,126.2 C202.8,128.7 201.8,130.8 198.9,131 C196.2,131.2 194.4,129.7 194.4,127 C194.2,124.3 195.7,122.7 198.4,122.2 Z"  fill="#AFAFAF"></path>
                <path d="M171.6,127.8 C171.2,130.7 169.7,132.5 167.1,132.5 C164.6,132.5 163.2,130.6 163.2,128.3 C163.1,125.6 164.8,124.1 167.5,124 C170.2,123.9 171,125.9 171.6,127.8 Z"  fill="#AFAFAF"></path>
                <path d="M214.8,130 C212.2,129.4 210.8,127.9 211.1,125.1 C211.3,122.6 212.8,121 215.3,121.2 C218,121.4 219.3,123.3 219.1,126 C218.8,128.5 217.3,129.8 214.8,130 Z"  fill="#AFAFAF"></path>
                <path d="M201.9,157.3 C201.7,159.2 200.4,160.9 197.9,160.8 C195.2,160.7 193.8,159 193.9,156.3 C194,153.6 195.8,152.4 198.1,152.5 C200.5,152.7 202.1,154.1 201.9,157.3 Z"  fill="#AFAFAF"></path>
                <path d="M186.9,158.1 C186.6,160.3 185.3,161.9 182.8,161.8 C180.6,161.7 179.1,160.2 179.2,157.9 C179.3,155.4 180.9,154.1 183.4,154.1 C185.8,154.1 187,155.4 186.9,158.1 Z"  fill="#AFAFAF"></path>
                <path d="M154.1,151.1 C156.3,151.5 157.8,152.7 157.8,155 C157.7,157.5 156.1,159 153.6,158.8 C151.4,158.6 150,157 150.2,154.7 C150.3,152.4 151.9,151.3 154.1,151.1 Z"  fill="#AFAFAF"></path>
                <path d="M170,142.9 C169.9,145.1 168.5,146.2 166.1,146.1 C163.8,146 162.3,144.7 162.3,142.4 C162.3,140.2 163.8,138.5 166,138.6 C168.4,138.6 170,139.9 170,142.9 Z"  fill="#AFAFAF"></path>
                <path d="M198,145.1 C195.1,144.9 194,143.7 194,141.3 C194.1,138.8 195.7,137.7 197.8,137.6 C200.3,137.5 201.8,139.3 201.6,141.7 C201.5,144 199.7,145 198,145.1 Z"  fill="#AFAFAF"></path>
                <path d="M186.1,128.3 C186.1,130.8 185,132.1 182.6,132.1 C180.5,132.1 179.2,131.2 179,129 C178.8,126.7 179.7,125.2 182.2,125 C184.6,124.9 185.9,125.9 186.1,128.3 Z"  fill="#AFAFAF"></path>
                <path d="M324.8,238.9 C327.3,238.9 329.3,240 331,241.7 C335.6,246 338.5,251.3 340.2,257.3 C341,260.1 340.1,262.4 337.5,263.5 C334.5,264.8 332.7,262.8 331.8,260.3 C329.7,254.6 327.3,249.3 321.7,246.1 C319.9,245.1 319.6,243.1 320.3,241.2 C321,239 322.9,238.9 324.8,238.9 Z"  fill="#FEFDFD"></path>
                <path d="M338.9,121.8 C339,125.1 338.2,127.1 335.8,127.8 C333,128.5 331.2,127.1 330.5,124.5 C329.2,119.5 326.5,115.4 322.7,112 C320.7,110.2 320.3,108 322.1,105.8 C323.7,103.7 326,103.8 327.9,105.1 C334.1,109.3 337.4,115.5 338.9,121.8 Z"  fill="#FEFDFD"></path>
                <g id="r" transform="translate(285, 313)" fill="#AFAFAF">
                    <path d="M4.9,12.2 C2.7,12.3 0.5,10.1 0.4,6.5 C0.3,2.9 2.8,0.4 6.4,0.3 C10,0.2 12.5,2.7 12.7,6.2 C12.7,9.8 10.5,12 4.9,12.2 Z" ></path>
                    <animate id="a" attributeName="fill" from="AFAFAF" to="DB373E" dur="0.9s" begin="3s;b.end+8"/>
                    <animate id="b" attributeName="fill" from="DB373E" to="AFAFAF" dur="1.6s" begin="a.end"/>
                </g>
                <g id="r" transform="translate(211, 251)" fill="#AFAFAF">
                    <path d="M3.8,9 C1.2,8.4 -0.2,6.9 0.1,4.1 C0.3,1.6 1.8,4.4408921e-16 4.3,0.2 C7,0.4 8.3,2.3 8.1,5 C7.8,7.5 6.3,8.8 3.8,9 Z" ></path>
                    <animate id="a" attributeName="fill" from="AFAFAF" to="DB373E" dur="0.9s" begin="1s;b.end+12"/>
                    <animate id="b" attributeName="fill" from="DB373E" to="AFAFAF" dur="0.5s" begin="a.end"/>
                </g>
                <g id="r" transform="translate(162, 268)" fill="#AFAFAF">
                    <path d="M8,3.9 C7.9,7 6.6,8.1 4.3,8.1 C2,8 0.4,6.8 0.4,4.5 C0.3,2.3 1.8,0.6 4,0.6 C6.3,0.5 7.9,1.8 8,3.9 Z" ></path>
                    <animate id="a" attributeName="fill" from="AFAFAF" to="DB373E" dur="0.9s" begin="4s;b.end+5"/>
                    <animate id="b" attributeName="fill" from="DB373E" to="AFAFAF" dur="0.9s" begin="a.end"/>
                </g>
                <g id="r" transform="translate(208, 282)" fill="#AFAFAF">
                    <path d="M4.2,8.6 C1.7,8.1 0.2,6.7 0.4,4.5 C0.5,2 2.3,0.8 4.8,1 C7.3,1.2 8.1,2.7 8,5 C7.8,7.5 5.9,8.1 4.2,8.6 Z" ></path>
                    <animate id="a" attributeName="fill" from="AFAFAF" to="DB373E" dur="3s" begin="2.5s;b.end+1"/>
                    <animate id="b" attributeName="fill" from="DB373E" to="AFAFAF" dur="0.9s" begin="a.end"/>
                </g>
                <g id="r" transform="translate(331, 173)" fill="#AFAFAF">
                    <path d="M7.8,17.1 C3.5,17 0.2,13.8 0.2,9.7 C0.1,5.3 5.2,5.68434189e-14 9.4,0.2 C13.4,0.4 17,4.4 17,8.6 C16.8,13.1 12.5,17.2 7.8,17.1 Z" ></path>
                    <animate id="a" attributeName="fill" from="AFAFAF" to="DB373E" dur="0.9s" begin="0s;b.end"/>
                    <animate id="b" attributeName="fill" from="DB373E" to="AFAFAF" dur="0.9s" begin="a.end"/>
                </g>
                <g id="r" transform="translate(147, 122)" fill="#AFAFAF">
                    <path d="M9.9,5.3 C8.9,8.1 8,11.1 4.1,10.9 C1.2,10.7 0.1,8.5 0.4,6.1 C0.7,3.1 2.6,0.6 5.8,0.6 C8.4,0.5 9.6,2.7 9.9,5.3 Z" ></path>
                    <animate id="a" attributeName="fill" from="AFAFAF" to="DB373E" dur="0.4s" begin="4s;b.end+2"/>
                    <animate id="b" attributeName="fill" from="DB373E" to="AFAFAF" dur="0.9s" begin="a.end"/>
                </g>
                <g id="r" transform="translate(166, 154)" fill="#AFAFAF">
                    <path d="M8,3.8 C8,6.5 7,7.9 4.5,7.9 C2.2,7.9 0.5,6.7 0.4,4.4 C0.3,2.4 1.3,0.3 3.8,0.2 C6.3,1.66533454e-16 7.7,1.6 8,3.8 Z" ></path>
                    <animate id="a" attributeName="fill" from="AFAFAF" to="DB373E" dur="0.9s" begin="6s;b.end"/>
                    <animate id="b" attributeName="fill" from="DB373E" to="AFAFAF" dur="0.9s" begin="a.end"/>
                </g>
                <g id="r" transform="translate(179, 139)" fill="#AFAFAF">
                    <path d="M7.9,4 C7.6,6.3 6.5,7.8 4.2,7.9 C1.7,8 0.1,6.4 0.2,3.9 C0.3,1.6 1.8,0.2 4.1,0.2 C6.3,0.2 7.5,1.7 7.9,4 Z" ></path>
                    <animate id="a" attributeName="fill" from="AFAFAF" to="DB373E" dur="0.9s" begin="10s;b.end+8"/>
                    <animate id="b" attributeName="fill" from="DB373E" to="AFAFAF" dur="0.9s" begin="a.end"/>
                </g>
                <g id="r" transform="translate(208, 152)" fill="#AFAFAF">
                    <path d="M4,8.6 C1.7,8.2 0.2,6.8 0.3,4.6 C0.4,2.1 2.2,0.9 4.6,1 C6.8,1.1 7.8,2.3 7.9,4.5 C8,7.2 6.3,8.1 4,8.6 Z" ></path>
                    <animate id="a" attributeName="fill" from="AFAFAF" to="DB373E" dur="0.9s" begin="2.5s;b.end+8"/>
                    <animate id="b" attributeName="fill" from="DB373E" to="AFAFAF" dur="5s" begin="a.end"/>
                </g>
                <g id="g" transform="translate(305, 173)" fill="#AFAFAF">
                    <path d="M14,6 C14,11 11.4,14 7.4,14.1 C3.5,14.2 1,11.6 0.9,7.5 C0.9,3.6 4.4,-0.2 8.1,0.2 C12,0.5 13.8,3.1 14,6 Z" ></path>
                    <animate id="a" attributeName="fill" from="AFAFAF" to="1EB771" dur="0.9s" begin="2.4s;b.end+8"/>
                    <animate id="b" attributeName="fill" from="1EB771" to="AFAFAF" dur="5s" begin="a.end"/>
                </g>
                <g id="g" transform="translate(308, 313)" fill="#AFAFAF">
                    <path d="M7.6,13.8 C3.6,13.8 1,10.9 0.9,6.7 C0.8,2.9 2.9,1.2 6.4,1 C10.1,0.8 13.9,4.2 14,7.5 C14,10.9 11.1,13.8 7.6,13.8 Z" ></path>
                    <animate id="a" attributeName="fill" from="AFAFAF" to="1EB771" dur="1.5s" begin="0s;b.end+5s"/>
                    <animate id="b" attributeName="fill" from="1EB771" to="AFAFAF" dur="0.9s" begin="a.end"/>
                </g>
                <g id="r-large">
                    <path fill="#84B1D5" d="M313.2,160.1 C296.9,160.1 280.4,145.3 281.3,130.4 C282.4,111.5 294.7,99.4 314.1,99.3 C329.2,99.2 344.5,107.3 344.8,126.4 C345.1,150.6 327.4,160.1 313.2,160.1 Z M338.9,121.8 C337.5,115.5 334.1,109.3 327.9,105.1 C325.9,103.7 323.7,103.7 322.1,105.8 C320.4,108 320.8,110.2 322.7,112 C326.5,115.5 329.1,119.5 330.5,124.5 C331.2,127 333,128.5 335.8,127.8 C338.2,127.1 339,125.2 338.9,121.8 Z">
                        <animate id="a" attributeName="fill" from="84B1D5" to="1EB771" dur="1.5s" begin="0s;b.end+5s"/>
                        <animate id="b" attributeName="fill" from="1EB771" to="84B1D5" dur="1.2s" begin="a.end"/>
                    </path>
                </g>
                <g id="r-large">
                    <path fill="#84B1D5" d="M313.2,295.1 C297,295.1 280.4,280.2 281.3,265.4 C282.4,246.4 294.8,234.4 314.2,234.3 C329.4,234.2 344.6,242.4 344.9,261.5 C345.1,285.7 327.3,295.1 313.2,295.1 Z M324.8,238.9 C322.9,238.9 321,239 320.3,241.2 C319.6,243.1 319.9,245.1 321.7,246.1 C327.4,249.3 329.8,254.6 331.8,260.3 C332.7,262.8 334.5,264.8 337.5,263.5 C340.1,262.4 341,260.2 340.2,257.3 C338.5,251.3 335.6,246 331,241.7 C329.2,240 327.3,238.9 324.8,238.9 Z">
                        <animate id="a" attributeName="fill" from="84B1D5" to="DB373E" dur="1.5s" begin="3s;b.end+5s"/>
                        <animate id="b" attributeName="fill" from="DB373E" to="84B1D5" dur="3.4s" begin="a.end"/>
                    </path>
                </g>
            </g>
        </g>
    </g>
</svg>