<?xml version="1.0" encoding="UTF-8"?>
<svg width="582px" height="592px" viewBox="0 0 582 592" version="1.1" xmlns="http://www.w3.org/2000/svg" xmlns:xlink="http://www.w3.org/1999/xlink">
    <!-- Generator: Sketch 51.3 (57544) - http://www.bohemiancoding.com/sketch -->
    <title>dont-sacrifice-animated</title>
    <desc>Created with Sketch.</desc>
    <defs>
        <linearGradient x1="38.4887978%" y1="26.155182%" x2="93.7936189%" y2="69.3423061%" id="linearGradient-1">
            <stop stop-color="#EF473A" offset="0%"></stop>
            <stop stop-color="#CE2F3E" offset="100%"></stop>
        </linearGradient>
    </defs>
    <g id="Page-1" stroke="none" stroke-width="1" fill="none" fill-rule="evenodd">
        <g id="dont-sacrifice-animated" fill-rule="nonzero">
            <g transform="translate(10, 10)">
                <g id="outer" style="transform: scale(0.95);">
                    <g id="shapes">
                        <path d="M438.3,549.3 C495.4,514.6 539.9,461.3 563.2,398.7 C586.9,335.1 587.6,263.4 565.3,199.3 C543.3,136.1 499.7,81.3 443,45.7 C385.8,9.7 316.6,-5.5 249.6,2.9 C183.4,11.2 121.2,42 74.6,89.7 C68.8,95.7 63.2,101.9 57.9,108.4 C54.2,112.8 60.6,119.2 64.3,114.8 C105.5,65 162.3,29.7 225.6,16.1 C289.7,2 358.3,10.9 416.8,41 C474.4,70.7 520.9,119.7 547.5,178.7 C574.6,238.8 579.7,308 562.4,371.5 C545.4,433.9 506.8,489.8 454.4,527.7 C447.7,532.6 440.8,537.1 433.7,541.4 C428.8,544.5 433.3,552.3 438.3,549.3 Z" id="Shape" fill="#DB373E"></path>
                        <path d="M0.4,372.2 C26.8,470 103.2,549.5 200.3,578.9 C228.1,587.3 257,591.4 286,591.5 C291.8,591.5 291.8,582.5 286,582.5 C236.7,582.3 188,569.8 145.1,545.5 C102.2,521.2 65.9,485.9 40.5,443.7 C26.6,420.6 16.1,395.8 9.1,369.8 C7.6,364.2 -1.1,366.6 0.4,372.2 Z" id="Shape" fill="#DB373E"></path>
                        <path d="M133.7,509.8 C196.2,554.2 276.4,569.3 350.8,550.4 C422.2,532.3 484,483.4 518.3,418.3 C538.1,380.6 548.3,338.5 548.5,296 C548.5,290.2 539.5,290.2 539.5,296 C539.2,368.3 508.2,437.7 454.1,485.8 C399,534.7 323.6,557.4 250.6,547.1 C210.1,541.4 171.6,525.7 138.2,502.1 C133.5,498.7 129,506.5 133.7,509.8 Z" id="Shape" fill="#666666"></path>
                        <path d="M362.2,44.7 C272,17.7 172.2,41.4 104.2,106.6 C85.6,124.4 69.8,145 57.1,167.4 C54.2,172.4 62,177 64.9,171.9 C109.5,93.4 193.6,43.2 284.1,42.5 C309.8,42.3 335.2,46 359.8,53.4 C365.4,55.1 367.7,46.4 362.2,44.7 Z" id="Shape" fill="#666666"></path>
                        <animateTransform attributeName="transform" type="rotate" from="0 291 296" to="360 291 296" dur="30s" repeatCount="indefinite"/>
                    </g>
                </g>
            </g>
            <g id="server" transform="translate(169.000000, 127.000000)">
                <path d="M245,122.968396 C242.050691,132.4255 243.758186,142.347708 242.205918,151.959846 C236.928207,184.982193 224.820518,215.368954 207.435118,243.740266 C201.381273,253.662474 195.172202,263.429647 189.118357,273.19682 C187.566089,275.677372 184.461553,277.227717 184.461553,280.638476 C177.942028,286.064683 171.888184,291.955994 167.386607,299.242615 C154.347557,310.560133 141.463734,322.032685 128.11423,333.040134 C119.731984,340.016686 117.558809,339.706617 109.021335,331.644824 C95.6718318,319.08703 83.2536889,305.599029 70.835546,291.955994 C40.7215495,258.623578 20.8525209,220.175023 9.83141909,176.9204 C4.24325479,154.905502 2.07007979,132.270466 1.29394585,109.635429 C0.673038711,90.1010833 -1.18968272,70.5667372 1.13871907,50.8773566 C1.29394585,49.0169426 1.13871907,47.3115632 1.29394585,45.4511493 C3.62234765,20.9556994 8.12392444,17.5449405 32.0288495,22.6610788 C61.0562585,28.8624585 86.5134514,20.1805269 110.884057,5.60728453 C123.612653,-1.98940564 123.76788,-2.14444014 135.099435,6.84756047 C144.568269,14.4442506 154.19233,21.7308718 166.7657,23.2812168 C178.562936,30.1027345 191.601986,28.5523895 204.330582,28.5523895 C212.091921,28.5523895 219.698034,27.0020446 227.459373,26.3819066 C231.96095,26.0718376 235.220712,27.7772171 235.531166,32.5832864 C237.238661,51.4974945 241.895464,70.1016337 242.205918,89.1708764 C242.361145,99.093084 242.671598,109.015292 244.379093,118.937499 C244.844773,120.487844 245,121.72812 245,122.968396 Z M15.1091298,79.4037033 C15.5748102,95.2172216 15.5748102,109.790464 16.5061709,124.518741 C17.903212,144.053087 20.6972941,163.432399 25.8197781,182.346607 C40.8767763,238.00399 75.6475764,280.638476 116.472221,319.08703 C119.111076,321.567582 121.129025,321.567582 123.76788,319.08703 C131.9949,311.645374 140.6876,304.668822 148.759393,297.072132 C176.079307,271.646475 195.482655,240.949645 211.160561,207.462195 C220.629395,186.997642 227.925054,165.602882 229.322095,143.12288 C231.340043,110.720671 229.787775,78.1634274 223.578704,46.2263218 C222.80257,42.5054939 222.181662,41.265218 217.680086,41.4202525 C207.279891,42.0403904 196.879696,43.4357009 186.169048,42.5054939 C164.747752,40.64508 145.96531,33.2034243 129.511271,20.0254924 C123.923107,15.5294921 120.508118,16.3046646 115.385634,19.2503199 C87.4448121,35.9940452 57.6412692,43.7457699 25.0436441,35.5289417 C19.4554798,34.1336313 17.4375316,34.9088038 16.3509441,40.955149 C14.3329959,54.2881154 15.8852637,67.4660473 15.1091298,79.4037033 Z" id="Shape" fill="#DB373E"></path>
                <path d="M15,79.4390895 C15.7754106,67.3504123 14.2245894,54.3318368 16.3957391,41.1582784 C17.4813139,34.9589567 19.4973815,34.1840415 25.0803378,35.7338719 C57.492501,43.9479731 87.2682682,36.1988211 115.338132,19.4606526 C120.455842,16.3609918 123.867649,15.7410597 129.450605,20.2355679 C145.734228,33.4091263 164.654246,40.8483123 186.055579,42.7081088 C196.756245,43.638007 207.146747,42.2431597 217.537249,41.6232275 C221.879549,41.3132614 222.654959,42.7081088 223.43037,46.4277018 C229.633655,78.5091912 231.184476,110.900647 229.168409,143.292102 C227.772669,165.764643 220.638892,187.152303 211.0238,207.610064 C195.515588,241.086401 175.975241,271.928026 148.680788,297.190262 C140.616518,304.784431 131.931919,311.758668 123.712567,319.197854 C121.07617,321.522599 119.060103,321.677582 116.423707,319.197854 C75.482027,280.607077 40.743632,237.98674 25.8557484,182.502812 C20.7380385,163.594881 17.9465603,144.376984 16.5508212,124.694137 C15.4652464,109.970749 15.4652464,95.2473596 15,79.4390895 Z" id="Shape" fill="#373A3A"></path>
            </g>
            <g id="hatchet" transform="translate(234.000000, 211.000000)" fill="url(#linearGradient-1)">
                <path d="M100.073668,28.0455162 C100.073668,24.9710907 100.013425,21.8952987 100.088386,18.8228093 C100.189932,14.6701996 100.460909,10.5301176 101.207781,6.42796056 C101.646822,4.01727847 102.698215,2.03356511 104.687477,0.571803654 C105.893926,-0.315047645 106.801102,-0.0428536541 107.298332,1.39294117 C107.82226,2.90652198 108.057754,4.48308324 108.222395,6.06921115 C108.529769,9.03396177 108.454694,12.0172762 108.64318,14.9887463 C108.783746,17.2129926 109.204988,19.3810917 109.698681,21.548052 C110.5026,25.0767795 111.237834,28.6209958 112.00182,32.1588343 C112.56591,34.771555 113.146886,37.3807451 113.688271,39.9981351 C114.230112,42.6175752 114.570232,45.2674236 114.826605,47.9297997 C115.023877,49.9759241 115.047723,52.0278567 114.924043,54.0702228 C114.663905,58.3653073 114.107003,62.6166585 112.09652,66.5123354 C111.105597,68.4319294 110.182447,70.3921817 109.019696,72.2202092 C108.041667,73.7582761 106.818901,75.0749433 105.317514,76.1165694 C104.764377,76.5002604 104.283463,76.9445402 103.860396,77.4634171 C103.299158,78.1525576 102.660107,78.7177872 101.738327,78.9001231 C101.11388,79.024034 100.928931,79.6630634 100.549904,80.0705572 C100.41858,80.212007 100.618704,80.2756708 100.750827,80.3074457 C101.122437,80.3970761 101.499296,80.436026 101.880832,80.4271427 C102.456902,80.41359 102.980602,80.5777036 103.399791,80.9678863 C103.818637,81.3576134 104.306739,81.4908632 104.855996,81.5128437 C105.348434,81.5326603 105.843496,81.5102243 106.332168,81.6124963 C107.458637,81.8484737 108.11697,82.8001277 107.793394,83.8942564 C107.276654,85.641309 106.350196,87.192587 105.238674,88.6215485 C102.451996,92.2048286 98.8041234,94.4258861 94.3346462,95.2105792 C91.9767411,95.6243368 89.6066278,95.6381174 87.3138714,94.7276911 C86.6996934,94.4836276 86.0676023,94.279653 85.3936381,94.2102947 C85.003202,94.1702059 84.8839719,94.2899029 84.8560184,94.6487662 C84.7832252,95.5829952 84.8903612,96.506177 85.0057122,97.4283338 C85.1105662,98.2675796 85.1414862,99.1105838 85.3789197,99.9403769 C85.5822385,100.651953 85.3516508,101.388244 85.049525,102.041965 C84.5460199,103.13188 84.3817219,104.235006 84.5940543,105.417284 C84.7192174,106.114625 84.6176721,106.80331 84.4015746,107.491311 C84.049817,108.612204 83.7790675,109.757241 83.4488741,110.885536 C83.1408153,111.938096 82.6473507,112.917994 81.8575791,113.677404 C80.1341611,115.334826 79.2339448,117.4199 78.616458,119.65565 C78.0207635,121.812018 77.5069898,123.992303 76.6010687,126.049931 C75.6469991,128.216663 74.3514405,130.138763 72.4864296,131.633096 C70.8958192,132.907283 70.3430247,134.702055 69.9192727,136.576549 C69.4070963,138.842706 68.5681495,140.958417 66.9865526,142.71925 C66.3074541,143.475357 65.4964607,144.065187 64.6469029,144.610258 C64.479182,144.717427 64.2975414,144.744419 64.1052898,144.75911 C62.6166811,144.872771 61.2050871,145.294273 59.993389,146.146958 C58.0641421,147.504739 56.283448,147.109659 54.5170158,145.88695 C53.8670117,145.437204 53.1822084,145.091779 52.3834232,145.012513 C50.1128015,144.788038 48.6189443,143.432307 47.315285,141.692202 C45.9947395,139.928977 45.4856438,137.884219 44.9882999,135.818961 C44.5764139,134.107556 43.736326,132.675633 42.3952433,131.508274 C39.7536959,129.208975 38.2945239,126.195139 37.296071,122.912297 C36.8489293,121.442222 36.5421255,119.938094 36.1580789,118.452643 C35.7142459,116.737366 34.8637754,115.262849 33.506491,114.10107 C32.0624938,112.865605 31.3825965,111.234036 31.0186307,109.422067 C30.5770798,107.22242 30.6030936,104.960818 30.1763751,102.768689 C29.8081877,100.877909 29.6780044,99.0481728 30.1580056,97.1561398 C30.3632641,96.3479856 30.2462018,95.457376 30.1847041,94.6034385 C30.1562942,94.2097253 30.0182382,94.0746533 29.5991641,94.2010698 C28.5997985,94.5013943 27.5773854,94.7262106 26.5822413,95.0386073 C24.344251,95.7399339 22.1066029,95.5364148 19.8795658,95.0477184 C14.6288742,93.8961897 10.7890921,90.8456809 8.13898749,86.2348969 C7.6423282,85.3709373 7.35377976,84.4282805 7.24675784,83.4357405 C7.11178244,82.1836481 7.71135619,81.4851687 8.95819578,81.5314076 C10.2029816,81.5774186 11.318611,81.2373469 12.3673801,80.6036702 C12.9154967,80.2724819 13.5535207,80.4319261 14.1425977,80.306079 C14.4897914,80.2318236 14.5993234,80.1803459 14.3502521,79.8623687 C14.0064813,79.4224166 13.6385221,79.0525061 13.0786537,78.8618565 C12.3705748,78.6205263 11.7609606,78.1792076 11.2354351,77.6506501 C10.2037803,76.613238 9.12055419,75.6356174 8.01393842,74.6781551 C6.81068346,73.6374402 5.855587,72.3855756 5.16519293,70.9457946 C4.18111612,68.8934064 3.04688916,66.9128819 2.17964651,64.8044604 C1.04838603,62.0545039 0.615049948,59.1493171 0.315206022,56.2194164 C0.130028437,54.4093833 -0.06085394,52.5966169 0.0184426842,50.7732588 C0.151820747,47.7021362 0.46581256,44.6492357 1.04165438,41.6277685 C2.08528923,36.1524554 3.51502448,30.7607367 4.6146804,25.2978374 C5.45990255,21.0993305 6.3627431,16.9061764 6.5832904,12.6125725 C6.65334526,11.2498942 6.63885509,9.8801548 6.60291489,8.51531263 C6.53491376,5.93869471 7.02061984,3.46024884 7.85488879,1.04022787 C8.21486123,-0.00378983039 8.93925586,-0.270517163 9.92139305,0.278881921 C11.0686269,0.920644739 11.8182368,1.95965134 12.4976776,3.03749399 C13.4889425,4.61075248 13.9833198,6.3529079 14.0926237,8.20200482 C14.2281696,10.4935593 14.4800932,12.7741805 14.7225469,15.0554851 C14.9829137,17.5088754 15.0966673,19.9632908 15.0625526,22.4339922 C15.0013972,26.8742848 15.0044778,31.3159441 15.0348273,35.7566922 C15.0631231,39.9135158 15.3691282,44.0530284 16.0384145,48.1606521 C16.5094022,51.0497806 17.2167966,53.875587 18.2608878,56.6154074 C18.4935293,57.2259647 18.8673073,57.7520166 19.1646411,58.3227129 C19.3526711,58.683854 19.609615,59.0554728 20.1460937,58.889537 C20.6809751,58.7242845 21.0105981,58.2892296 20.9476172,57.7314028 C20.9075695,57.3770951 20.8315817,57.0157262 20.7029956,56.6840823 C20.4218634,55.9597502 20.4489042,55.2461236 20.8299843,54.5974136 C21.5999032,53.287238 22.247169,51.9154486 22.9341402,50.564387 C24.0563871,48.3577934 25.9282438,47.2095676 28.2680077,46.6887545 C28.8609639,46.5567575 29.4559738,46.4340994 30.0480172,46.2980024 C30.6442822,46.1614499 30.7153639,46.0435751 30.4425607,45.5297092 C30.0124193,44.7188217 29.8696854,43.8495093 29.8476649,42.9492191 C29.8225638,41.9176153 30.1761469,41.4309689 31.1782508,41.2086581 C32.7015447,40.8706365 34.2398992,40.9215447 35.7698106,41.1461332 C37.7234741,41.432905 39.5652095,42.0736428 41.3010639,43.0141357 C41.8551134,43.3144602 42.3482358,43.6995179 42.8226464,44.1113394 C43.4865702,44.6879579 43.6086528,44.6685968 44.0247604,43.8713759 C44.5691117,42.829636 45.0867646,41.7763933 45.7868569,40.8215504 C47.4972679,38.4885404 49.73252,37.0280318 52.6304408,36.6467324 C53.3790237,36.5482187 53.9521272,36.095625 54.573151,35.7360784 C56.0154368,34.9017297 57.6017116,34.3950389 59.137556,35.1493238 C60.8245774,35.977978 62.6203322,36.4273828 64.3489986,37.09329 C67.3945594,38.2667991 69.5144606,40.4205483 70.7978108,43.409785 C70.9391756,43.7394928 71.1112321,44.0590645 71.3016581,44.3630334 C71.5054334,44.6882995 71.8130358,44.7371578 72.0557177,44.4395666 C73.5288094,42.6334057 75.6698182,42.0834372 77.7456783,41.4458883 C79.6464013,40.8622087 81.6099911,40.9199503 83.5671915,41.1201666 C84.4588507,41.2113914 85.0726864,41.8982542 85.1859836,42.9076497 C85.2680185,43.6406374 85.1588288,44.3421918 84.8327428,45.0112879 C84.2284911,46.2518775 84.3368822,46.4200911 85.7403754,46.5699686 C87.6391587,46.7725766 89.3715903,47.3694673 90.758996,48.7495705 C91.5369016,49.5233304 92.1343075,50.4240761 92.5334149,51.4396216 C92.9103876,52.3985645 93.3766974,53.3055741 93.9434115,54.161106 C94.547435,55.0726711 94.6874306,56.0071279 94.1720596,57.0062734 C94.0093589,57.321859 94.0182584,57.671839 94.0767896,58.0106579 C94.1577976,58.4809043 94.4455474,58.827126 94.8946287,58.9423813 C95.3285353,59.0538784 95.6167414,58.7250817 95.8003217,58.3909322 C96.1662271,57.7269611 96.5211793,57.0520567 96.8146339,56.353919 C98.1619919,53.1454466 98.8653929,49.7792383 99.2568558,46.3345607 C99.5846532,43.4512405 99.8495838,40.5593786 99.9960829,37.6653529 C100.136079,34.9018436 100.034761,32.1262622 100.039325,29.3560334 C100.04001,28.9196119 100.039439,28.4831904 100.039439,28.0466551 C100.051305,28.0454023 100.062487,28.0454023 100.073668,28.0455162 Z" id="Shape"></path>
            </g>
        </g>
    </g>
</svg>