<?xml version="1.0" encoding="UTF-8"?>
<svg width="198px" height="51px" viewBox="0 0 198 51" version="1.1" xmlns="http://www.w3.org/2000/svg" xmlns:xlink="http://www.w3.org/1999/xlink">
    <!-- Generator: Sketch 51.3 (57544) - http://www.bohemiancoding.com/sketch -->
    <title>stars</title>
    <desc>Created with Sketch.</desc>
    <defs></defs>
    <g id="Page-1" stroke="none" stroke-width="1" fill="none" fill-rule="evenodd">
        <g id="Home" transform="translate(-618.000000, -1250.000000)" fill-rule="nonzero">
            <g id="Services" transform="translate(-793.000000, 1009.000000)">
                <g id="Trust-Section" transform="translate(1104.000000, 136.000000)">
                    <g id="stars" transform="translate(307.000000, 105.000000)">
                        <g id="star" transform="translate(84.000000, 0.000000)">
                            <path d="M28.3865608,9.03148269 L19.9650774,8.24392519 L16.6198076,0.411334352 C16.3855645,-0.137111451 15.614388,-0.137111451 15.3802078,0.411334352 L12.034938,8.24386169 L3.61345462,9.03148269 C3.02375369,9.08659394 2.78548051,9.82615133 3.23035366,10.2202475 L9.58438905,15.8485789 L7.72486335,24.1679011 C7.59464429,24.7504423 8.21860013,25.2074593 8.72776423,24.9026331 L16.0000077,20.5485906 L23.2722512,24.9026331 C23.7814783,25.2075228 24.4053082,24.7504423 24.2751521,24.1679011 L22.4155634,15.8485789 L28.7696618,10.2202475 C29.2145349,9.82615133 28.9761988,9.08659394 28.3865608,9.03148269 Z" id="Shape" fill="#FFDC64"></path>
                            <g id="Group" opacity="0.153515625" fill="#FFF082">
                                <path d="M7.454875,0.499213415 C7.881,1.09590041 9.08375,3.65844106 9.771375,5.15185976 C9.8795,5.38662805 9.5873125,5.59871341 9.40075,5.42084146 C8.2140625,4.28971951 6.185,2.32689024 5.758875,1.73014024 C5.4216875,1.25802033 5.528,0.599711382 5.996375,0.25978252 C6.4646875,-0.0801463415 7.1176875,0.0270934959 7.454875,0.499213415 Z" id="Shape"></path>
                                <path d="M24.545125,0.499213415 C24.119,1.09590041 22.91625,3.65844106 22.228625,5.15185976 C22.1205,5.38662805 22.4126875,5.59871341 22.59925,5.42084146 C23.7859375,4.28971951 25.8149375,2.32682724 26.241125,1.73014024 C26.5783125,1.25802033 26.472,0.599711382 26.003625,0.25978252 C25.5353125,-0.0801463415 24.8823125,0.0270934959 24.545125,0.499213415 Z" id="Shape"></path>
                                <path d="M31.2788125,17.9969492 C30.5854375,17.7689858 27.79825,17.3923862 26.1780625,17.1857195 C25.923375,17.1532073 25.81175,17.4983028 26.0364375,17.623437 C27.466,18.4195447 29.9374375,19.7719512 30.6308125,19.9999146 C31.1794375,20.1803069 31.76925,19.8781829 31.9481875,19.3250346 C32.127125,18.7718862 31.8274375,18.1773415 31.2788125,17.9969492 Z" id="Shape"></path>
                                <path d="M0.7211875,17.9969492 C1.4145625,17.7689858 4.20175,17.3923862 5.8219375,17.1857195 C6.076625,17.1532073 6.18825,17.4983028 5.9635625,17.623437 C4.534,18.4195447 2.0625625,19.7719512 1.3691875,19.9999146 C0.8205625,20.1803069 0.23075,19.8781829 0.0518125,19.3250346 C-0.127125,18.7718862 0.1725625,18.1773415 0.7211875,17.9969492 Z" id="Shape"></path>
                                <path d="M14.987125,29.8853862 C14.987125,29.1501443 15.4961875,26.3620346 15.8036875,24.7450569 C15.852,24.4908821 16.2120625,24.4908821 16.260375,24.7450569 C16.567875,26.3620346 17.0769375,29.1501443 17.0769375,29.8853862 C17.0769375,30.4671402 16.609125,30.9387561 16.0320625,30.9387561 C15.4549375,30.9388191 14.987125,30.4671402 14.987125,29.8853862 Z" id="Shape"></path>
                            </g>
                            <path d="M18,3.2595987 L16.7700818,0.411334772 C16.533253,-0.137111591 15.7535642,-0.137111591 15.516799,0.411334772 L12.1346036,8.24387011 L3.62022604,9.03149191 C3.02401588,9.08660321 2.78311261,9.82616136 3.23289634,10.220258 L9.65706869,15.8485951 L7.77701722,24.1679258 C7.64536078,24.7504675 8.27620396,25.207485 8.79098829,24.9026585 L9.76956237,24.3231644 C11.3738229,13.9663028 15.8838837,6.36360956 18,3.2595987 Z" id="Shape" fill="#FFC850"></path>
                        </g>
                        <g id="star" transform="translate(42.000000, 8.000000)">
                            <path d="M28.3865608,9.03148269 L19.9650774,8.24392519 L16.6198076,0.411334352 C16.3855645,-0.137111451 15.614388,-0.137111451 15.3802078,0.411334352 L12.034938,8.24386169 L3.61345462,9.03148269 C3.02375369,9.08659394 2.78548051,9.82615133 3.23035366,10.2202475 L9.58438905,15.8485789 L7.72486335,24.1679011 C7.59464429,24.7504423 8.21860013,25.2074593 8.72776423,24.9026331 L16.0000077,20.5485906 L23.2722512,24.9026331 C23.7814783,25.2075228 24.4053082,24.7504423 24.2751521,24.1679011 L22.4155634,15.8485789 L28.7696618,10.2202475 C29.2145349,9.82615133 28.9761988,9.08659394 28.3865608,9.03148269 Z" id="Shape" fill="#FFDC64"></path>
                            <g id="Group" opacity="0.153515625" fill="#FFF082">
                                <path d="M7.454875,0.499213415 C7.881,1.09590041 9.08375,3.65844106 9.771375,5.15185976 C9.8795,5.38662805 9.5873125,5.59871341 9.40075,5.42084146 C8.2140625,4.28971951 6.185,2.32689024 5.758875,1.73014024 C5.4216875,1.25802033 5.528,0.599711382 5.996375,0.25978252 C6.4646875,-0.0801463415 7.1176875,0.0270934959 7.454875,0.499213415 Z" id="Shape"></path>
                                <path d="M24.545125,0.499213415 C24.119,1.09590041 22.91625,3.65844106 22.228625,5.15185976 C22.1205,5.38662805 22.4126875,5.59871341 22.59925,5.42084146 C23.7859375,4.28971951 25.8149375,2.32682724 26.241125,1.73014024 C26.5783125,1.25802033 26.472,0.599711382 26.003625,0.25978252 C25.5353125,-0.0801463415 24.8823125,0.0270934959 24.545125,0.499213415 Z" id="Shape"></path>
                                <path d="M31.2788125,17.9969492 C30.5854375,17.7689858 27.79825,17.3923862 26.1780625,17.1857195 C25.923375,17.1532073 25.81175,17.4983028 26.0364375,17.623437 C27.466,18.4195447 29.9374375,19.7719512 30.6308125,19.9999146 C31.1794375,20.1803069 31.76925,19.8781829 31.9481875,19.3250346 C32.127125,18.7718862 31.8274375,18.1773415 31.2788125,17.9969492 Z" id="Shape"></path>
                                <path d="M0.7211875,17.9969492 C1.4145625,17.7689858 4.20175,17.3923862 5.8219375,17.1857195 C6.076625,17.1532073 6.18825,17.4983028 5.9635625,17.623437 C4.534,18.4195447 2.0625625,19.7719512 1.3691875,19.9999146 C0.8205625,20.1803069 0.23075,19.8781829 0.0518125,19.3250346 C-0.127125,18.7718862 0.1725625,18.1773415 0.7211875,17.9969492 Z" id="Shape"></path>
                                <path d="M14.987125,29.8853862 C14.987125,29.1501443 15.4961875,26.3620346 15.8036875,24.7450569 C15.852,24.4908821 16.2120625,24.4908821 16.260375,24.7450569 C16.567875,26.3620346 17.0769375,29.1501443 17.0769375,29.8853862 C17.0769375,30.4671402 16.609125,30.9387561 16.0320625,30.9387561 C15.4549375,30.9388191 14.987125,30.4671402 14.987125,29.8853862 Z" id="Shape"></path>
                            </g>
                            <path d="M18,3.2595987 L16.7700818,0.411334772 C16.533253,-0.137111591 15.7535642,-0.137111591 15.516799,0.411334772 L12.1346036,8.24387011 L3.62022604,9.03149191 C3.02401588,9.08660321 2.78311261,9.82616136 3.23289634,10.220258 L9.65706869,15.8485951 L7.77701722,24.1679258 C7.64536078,24.7504675 8.27620396,25.207485 8.79098829,24.9026585 L9.76956237,24.3231644 C11.3738229,13.9663028 15.8838837,6.36360956 18,3.2595987 Z" id="Shape" fill="#FFC850"></path>
                        </g>
                        <g id="star" transform="translate(126.000000, 8.000000)">
                            <path d="M28.3865608,9.03148269 L19.9650774,8.24392519 L16.6198076,0.411334352 C16.3855645,-0.137111451 15.614388,-0.137111451 15.3802078,0.411334352 L12.034938,8.24386169 L3.61345462,9.03148269 C3.02375369,9.08659394 2.78548051,9.82615133 3.23035366,10.2202475 L9.58438905,15.8485789 L7.72486335,24.1679011 C7.59464429,24.7504423 8.21860013,25.2074593 8.72776423,24.9026331 L16.0000077,20.5485906 L23.2722512,24.9026331 C23.7814783,25.2075228 24.4053082,24.7504423 24.2751521,24.1679011 L22.4155634,15.8485789 L28.7696618,10.2202475 C29.2145349,9.82615133 28.9761988,9.08659394 28.3865608,9.03148269 Z" id="Shape" fill="#FFDC64"></path>
                            <g id="Group" opacity="0.153515625" fill="#FFF082">
                                <path d="M7.454875,0.499213415 C7.881,1.09590041 9.08375,3.65844106 9.771375,5.15185976 C9.8795,5.38662805 9.5873125,5.59871341 9.40075,5.42084146 C8.2140625,4.28971951 6.185,2.32689024 5.758875,1.73014024 C5.4216875,1.25802033 5.528,0.599711382 5.996375,0.25978252 C6.4646875,-0.0801463415 7.1176875,0.0270934959 7.454875,0.499213415 Z" id="Shape"></path>
                                <path d="M24.545125,0.499213415 C24.119,1.09590041 22.91625,3.65844106 22.228625,5.15185976 C22.1205,5.38662805 22.4126875,5.59871341 22.59925,5.42084146 C23.7859375,4.28971951 25.8149375,2.32682724 26.241125,1.73014024 C26.5783125,1.25802033 26.472,0.599711382 26.003625,0.25978252 C25.5353125,-0.0801463415 24.8823125,0.0270934959 24.545125,0.499213415 Z" id="Shape"></path>
                                <path d="M31.2788125,17.9969492 C30.5854375,17.7689858 27.79825,17.3923862 26.1780625,17.1857195 C25.923375,17.1532073 25.81175,17.4983028 26.0364375,17.623437 C27.466,18.4195447 29.9374375,19.7719512 30.6308125,19.9999146 C31.1794375,20.1803069 31.76925,19.8781829 31.9481875,19.3250346 C32.127125,18.7718862 31.8274375,18.1773415 31.2788125,17.9969492 Z" id="Shape"></path>
                                <path d="M0.7211875,17.9969492 C1.4145625,17.7689858 4.20175,17.3923862 5.8219375,17.1857195 C6.076625,17.1532073 6.18825,17.4983028 5.9635625,17.623437 C4.534,18.4195447 2.0625625,19.7719512 1.3691875,19.9999146 C0.8205625,20.1803069 0.23075,19.8781829 0.0518125,19.3250346 C-0.127125,18.7718862 0.1725625,18.1773415 0.7211875,17.9969492 Z" id="Shape"></path>
                                <path d="M14.987125,29.8853862 C14.987125,29.1501443 15.4961875,26.3620346 15.8036875,24.7450569 C15.852,24.4908821 16.2120625,24.4908821 16.260375,24.7450569 C16.567875,26.3620346 17.0769375,29.1501443 17.0769375,29.8853862 C17.0769375,30.4671402 16.609125,30.9387561 16.0320625,30.9387561 C15.4549375,30.9388191 14.987125,30.4671402 14.987125,29.8853862 Z" id="Shape"></path>
                            </g>
                            <path d="M18,3.2595987 L16.7700818,0.411334772 C16.533253,-0.137111591 15.7535642,-0.137111591 15.516799,0.411334772 L12.1346036,8.24387011 L3.62022604,9.03149191 C3.02401588,9.08660321 2.78311261,9.82616136 3.23289634,10.220258 L9.65706869,15.8485951 L7.77701722,24.1679258 C7.64536078,24.7504675 8.27620396,25.207485 8.79098829,24.9026585 L9.76956237,24.3231644 C11.3738229,13.9663028 15.8838837,6.36360956 18,3.2595987 Z" id="Shape" fill="#FFC850"></path>
                        </g>
                        <g id="star" transform="translate(166.000000, 20.000000)">
                            <path d="M28.3865608,9.03148269 L19.9650774,8.24392519 L16.6198076,0.411334352 C16.3855645,-0.137111451 15.614388,-0.137111451 15.3802078,0.411334352 L12.034938,8.24386169 L3.61345462,9.03148269 C3.02375369,9.08659394 2.78548051,9.82615133 3.23035366,10.2202475 L9.58438905,15.8485789 L7.72486335,24.1679011 C7.59464429,24.7504423 8.21860013,25.2074593 8.72776423,24.9026331 L16.0000077,20.5485906 L23.2722512,24.9026331 C23.7814783,25.2075228 24.4053082,24.7504423 24.2751521,24.1679011 L22.4155634,15.8485789 L28.7696618,10.2202475 C29.2145349,9.82615133 28.9761988,9.08659394 28.3865608,9.03148269 Z" id="Shape" fill="#FFDC64"></path>
                            <g id="Group" opacity="0.153515625" fill="#FFF082">
                                <path d="M7.454875,0.499213415 C7.881,1.09590041 9.08375,3.65844106 9.771375,5.15185976 C9.8795,5.38662805 9.5873125,5.59871341 9.40075,5.42084146 C8.2140625,4.28971951 6.185,2.32689024 5.758875,1.73014024 C5.4216875,1.25802033 5.528,0.599711382 5.996375,0.25978252 C6.4646875,-0.0801463415 7.1176875,0.0270934959 7.454875,0.499213415 Z" id="Shape"></path>
                                <path d="M24.545125,0.499213415 C24.119,1.09590041 22.91625,3.65844106 22.228625,5.15185976 C22.1205,5.38662805 22.4126875,5.59871341 22.59925,5.42084146 C23.7859375,4.28971951 25.8149375,2.32682724 26.241125,1.73014024 C26.5783125,1.25802033 26.472,0.599711382 26.003625,0.25978252 C25.5353125,-0.0801463415 24.8823125,0.0270934959 24.545125,0.499213415 Z" id="Shape"></path>
                                <path d="M31.2788125,17.9969492 C30.5854375,17.7689858 27.79825,17.3923862 26.1780625,17.1857195 C25.923375,17.1532073 25.81175,17.4983028 26.0364375,17.623437 C27.466,18.4195447 29.9374375,19.7719512 30.6308125,19.9999146 C31.1794375,20.1803069 31.76925,19.8781829 31.9481875,19.3250346 C32.127125,18.7718862 31.8274375,18.1773415 31.2788125,17.9969492 Z" id="Shape"></path>
                                <path d="M0.7211875,17.9969492 C1.4145625,17.7689858 4.20175,17.3923862 5.8219375,17.1857195 C6.076625,17.1532073 6.18825,17.4983028 5.9635625,17.623437 C4.534,18.4195447 2.0625625,19.7719512 1.3691875,19.9999146 C0.8205625,20.1803069 0.23075,19.8781829 0.0518125,19.3250346 C-0.127125,18.7718862 0.1725625,18.1773415 0.7211875,17.9969492 Z" id="Shape"></path>
                                <path d="M14.987125,29.8853862 C14.987125,29.1501443 15.4961875,26.3620346 15.8036875,24.7450569 C15.852,24.4908821 16.2120625,24.4908821 16.260375,24.7450569 C16.567875,26.3620346 17.0769375,29.1501443 17.0769375,29.8853862 C17.0769375,30.4671402 16.609125,30.9387561 16.0320625,30.9387561 C15.4549375,30.9388191 14.987125,30.4671402 14.987125,29.8853862 Z" id="Shape"></path>
                            </g>
                            <path d="M18,3.2595987 L16.7700818,0.411334772 C16.533253,-0.137111591 15.7535642,-0.137111591 15.516799,0.411334772 L12.1346036,8.24387011 L3.62022604,9.03149191 C3.02401588,9.08660321 2.78311261,9.82616136 3.23289634,10.220258 L9.65706869,15.8485951 L7.77701722,24.1679258 C7.64536078,24.7504675 8.27620396,25.207485 8.79098829,24.9026585 L9.76956237,24.3231644 C11.3738229,13.9663028 15.8838837,6.36360956 18,3.2595987 Z" id="Shape" fill="#FFC850"></path>
                        </g>
                        <g id="star" transform="translate(0.000000, 20.000000)">
                            <path d="M28.3865608,9.03148269 L19.9650774,8.24392519 L16.6198076,0.411334352 C16.3855645,-0.137111451 15.614388,-0.137111451 15.3802078,0.411334352 L12.034938,8.24386169 L3.61345462,9.03148269 C3.02375369,9.08659394 2.78548051,9.82615133 3.23035366,10.2202475 L9.58438905,15.8485789 L7.72486335,24.1679011 C7.59464429,24.7504423 8.21860013,25.2074593 8.72776423,24.9026331 L16.0000077,20.5485906 L23.2722512,24.9026331 C23.7814783,25.2075228 24.4053082,24.7504423 24.2751521,24.1679011 L22.4155634,15.8485789 L28.7696618,10.2202475 C29.2145349,9.82615133 28.9761988,9.08659394 28.3865608,9.03148269 Z" id="Shape" fill="#FFDC64"></path>
                            <g id="Group" opacity="0.153515625" fill="#FFF082">
                                <path d="M7.454875,0.499213415 C7.881,1.09590041 9.08375,3.65844106 9.771375,5.15185976 C9.8795,5.38662805 9.5873125,5.59871341 9.40075,5.42084146 C8.2140625,4.28971951 6.185,2.32689024 5.758875,1.73014024 C5.4216875,1.25802033 5.528,0.599711382 5.996375,0.25978252 C6.4646875,-0.0801463415 7.1176875,0.0270934959 7.454875,0.499213415 Z" id="Shape"></path>
                                <path d="M24.545125,0.499213415 C24.119,1.09590041 22.91625,3.65844106 22.228625,5.15185976 C22.1205,5.38662805 22.4126875,5.59871341 22.59925,5.42084146 C23.7859375,4.28971951 25.8149375,2.32682724 26.241125,1.73014024 C26.5783125,1.25802033 26.472,0.599711382 26.003625,0.25978252 C25.5353125,-0.0801463415 24.8823125,0.0270934959 24.545125,0.499213415 Z" id="Shape"></path>
                                <path d="M31.2788125,17.9969492 C30.5854375,17.7689858 27.79825,17.3923862 26.1780625,17.1857195 C25.923375,17.1532073 25.81175,17.4983028 26.0364375,17.623437 C27.466,18.4195447 29.9374375,19.7719512 30.6308125,19.9999146 C31.1794375,20.1803069 31.76925,19.8781829 31.9481875,19.3250346 C32.127125,18.7718862 31.8274375,18.1773415 31.2788125,17.9969492 Z" id="Shape"></path>
                                <path d="M0.7211875,17.9969492 C1.4145625,17.7689858 4.20175,17.3923862 5.8219375,17.1857195 C6.076625,17.1532073 6.18825,17.4983028 5.9635625,17.623437 C4.534,18.4195447 2.0625625,19.7719512 1.3691875,19.9999146 C0.8205625,20.1803069 0.23075,19.8781829 0.0518125,19.3250346 C-0.127125,18.7718862 0.1725625,18.1773415 0.7211875,17.9969492 Z" id="Shape"></path>
                                <path d="M14.987125,29.8853862 C14.987125,29.1501443 15.4961875,26.3620346 15.8036875,24.7450569 C15.852,24.4908821 16.2120625,24.4908821 16.260375,24.7450569 C16.567875,26.3620346 17.0769375,29.1501443 17.0769375,29.8853862 C17.0769375,30.4671402 16.609125,30.9387561 16.0320625,30.9387561 C15.4549375,30.9388191 14.987125,30.4671402 14.987125,29.8853862 Z" id="Shape"></path>
                            </g>
                            <path d="M18,3.2595987 L16.7700818,0.411334772 C16.533253,-0.137111591 15.7535642,-0.137111591 15.516799,0.411334772 L12.1346036,8.24387011 L3.62022604,9.03149191 C3.02401588,9.08660321 2.78311261,9.82616136 3.23289634,10.220258 L9.65706869,15.8485951 L7.77701722,24.1679258 C7.64536078,24.7504675 8.27620396,25.207485 8.79098829,24.9026585 L9.76956237,24.3231644 C11.3738229,13.9663028 15.8838837,6.36360956 18,3.2595987 Z" id="Shape" fill="#FFC850"></path>
                        </g>
                    </g>
                </g>
            </g>
        </g>
    </g>
</svg>