<?xml version="1.0" encoding="UTF-8"?>
<svg width="582px" height="592px" viewBox="0 0 582 592" version="1.1" xmlns="http://www.w3.org/2000/svg" xmlns:xlink="http://www.w3.org/1999/xlink">
    <!-- http://www.hatchet.com.au -->
    <title>Web Application - DARK - Animated</title>
    <desc>Copyright - Hatchet Pty Ltd</desc>
    <defs></defs>
    <g id="Page-1" stroke="none" stroke-width="1" fill="none" fill-rule="evenodd">
        <g id="web-application-DARK" fill-rule="nonzero">
            <g id="rings">
                <path d="M438.3,549.3 C495.4,514.6 539.9,461.3 563.2,398.7 C586.9,335.1 587.6,263.4 565.3,199.3 C543.3,136.1 499.7,81.3 443,45.7 C385.8,9.7 316.6,-5.5 249.6,2.9 C183.4,11.2 121.2,42 74.6,89.7 C68.8,95.7 63.2,101.9 57.9,108.4 C54.2,112.8 60.6,119.2 64.3,114.8 C105.5,65 162.3,29.7 225.6,16.1 C289.7,2 358.3,10.9 416.8,41 C474.4,70.7 520.9,119.7 547.5,178.7 C574.6,238.8 579.7,308 562.4,371.5 C545.4,433.9 506.8,489.8 454.4,527.7 C447.7,532.6 440.8,537.1 433.7,541.4 C428.8,544.5 433.3,552.3 438.3,549.3 Z" id="Shape" fill="#DB373E"></path>
                <path d="M0.4,372.2 C26.8,470 103.2,549.5 200.3,578.9 C228.1,587.3 257,591.4 286,591.5 C291.8,591.5 291.8,582.5 286,582.5 C236.7,582.3 188,569.8 145.1,545.5 C102.2,521.2 65.9,485.9 40.5,443.7 C26.6,420.6 16.1,395.8 9.1,369.8 C7.6,364.2 -1.1,366.6 0.4,372.2 Z" id="Shape" fill="#DB373E"></path>
                <path d="M133.7,509.8 C196.2,554.2 276.4,569.3 350.8,550.4 C422.2,532.3 484,483.4 518.3,418.3 C538.1,380.6 548.3,338.5 548.5,296 C548.5,290.2 539.5,290.2 539.5,296 C539.2,368.3 508.2,437.7 454.1,485.8 C399,534.7 323.6,557.4 250.6,547.1 C210.1,541.4 171.6,525.7 138.2,502.1 C133.5,498.7 129,506.5 133.7,509.8 Z" id="Shape" fill="#AFAFAF"></path>
                <path d="M362.2,44.7 C272,17.7 172.2,41.4 104.2,106.6 C85.6,124.4 69.8,145 57.1,167.4 C54.2,172.4 62,177 64.9,171.9 C109.5,93.4 193.6,43.2 284.1,42.5 C309.8,42.3 335.2,46 359.8,53.4 C365.4,55.1 367.7,46.4 362.2,44.7 Z" id="Shape" fill="#AFAFAF"></path>
            </g>
            <g id="computer" transform="translate(45.000000, 106.000000)">
                <path d="M438,280 C437.6,283.1 437.4,286.3 435.5,289 C434,289.7 432.6,290.3 431.1,291 C426.9,291 423,289.6 419.1,288.5 C418.7,287.3 418.1,286.7 417.1,288 C414.7,287.9 412.4,287.3 410.1,286.4 C409.7,285.2 409.1,284.6 408.1,285.9 C403,285.1 398,284 393.1,282.4 C392.7,281.2 392.1,280.6 391.1,281.9 C372.3,277.8 353.5,273.3 335.1,267.5 C334.8,266.3 334.3,265.5 333.1,266.9 C331.8,266.6 330.5,266.4 329.2,266 C274.2,248.6 218.4,233.6 164.1,213.9 C163.6,196.4 162.8,179 162.7,161.5 C162.2,119 161.2,76.6 161.7,34.1 C161.8,29.4 162,24.8 162.5,20.1 C163.7,8.8 169.5,2.8 180.8,1 C189.9,-0.5 198.7,1.7 207.5,3.5 C264.1,14.9 319.9,29.8 375.6,45.3 C381,46.8 386.6,47.9 392.1,49.2 C390.5,55.5 388.5,61.6 388.8,68.3 C389.6,86.1 400.1,98.8 420.1,105.9 C420.6,107 421.2,107.5 422.1,106.3 C423.4,106.4 424.8,106.6 426.1,106.7 C427.8,108.9 429.5,108.9 431.2,106.7 C434.3,106.2 437.4,105.6 440.4,105.1 C440.4,106.4 440.3,107.7 440.3,109.1 C438.4,113.5 438.4,117.8 440.3,122.2 C440.5,131.2 440.4,140.2 439.4,149.1 C437.2,156.7 437.8,164.4 439,172.1 C439,184.8 439,197.5 439,210.2 C438,211.1 438.1,212.3 438.1,213.4 C438.1,227.9 438.1,242.4 438.1,256.9 C438.1,258.1 437.9,259.3 439,260.1 C438.8,266.1 438.6,272.1 438.4,278.1 C437,278.5 436.7,279.1 438,280 Z" id="Shape" fill="#010101"></path>
                <path d="M410,286.4 C412.3,287.2 414.6,287.9 417,288 C417.7,288.2 418.3,288.4 419,288.5 C422.9,289.6 426.8,291 431,291 C429.7,295.7 425.1,296.3 421.8,298.3 C388.1,318.2 352.6,334.6 318.5,353.8 C305.4,361.2 291.2,366.1 276.6,369.8 C264.6,372.8 253,372.7 240.9,368.7 C189.2,351.2 138.2,331.9 86.2,315.3 C57.3,306.1 27.5,299 1,283.2 C-1.5,276.4 0.8,271.5 8.6,268.1 C19.6,263.3 31.1,259.8 42.5,256.4 C82.2,244.6 121.4,231.3 160.2,216.8 C161.7,216.2 163.6,216.1 164.1,214.2 C218.4,233.9 274.2,248.9 329.2,266.3 C330.5,266.7 331.8,266.9 333.1,267.2 C333.8,267.4 334.4,267.6 335.1,267.8 C353.5,273.5 372.3,278.1 391.1,282.2 C391.8,282.4 392.4,282.5 393.1,282.7 C398,284.3 403,285.4 408.1,286.2 C408.6,286.4 409.3,286.6 410,286.4 Z M135.4,240.3 C133,240.3 131.2,241 130.5,243.2 C129.9,245.3 131,246.8 132.7,247.8 C134.1,248.6 135.7,249.2 137.3,249.8 C197.5,272.4 258.6,292.1 319.6,312.4 C322.8,313.5 327,315.6 328.4,310.6 C329.7,306 325.2,305.5 322.2,304.5 C260.8,283.9 199.1,264.2 138.6,241.3 C137.5,240.9 136.4,240.6 135.4,240.3 Z M165.8,230.4 C165.1,230.2 164,230.5 163,231.3 C160.2,233.5 161.3,237.4 165.5,238.9 C172.1,241.3 178.9,243 185.5,245.3 C239.6,264.6 294.8,280.7 348.4,301.6 C351.3,302.7 354.5,304.1 356.1,300.2 C357.7,296.3 354.4,295 351.5,293.9 C345.8,291.6 340.1,289.2 334.3,287.2 C285.1,270.4 235.9,253.7 186.7,237 C180,234.6 173.1,232.6 165.8,230.4 Z M231.8,305.8 C229.4,307.1 227.9,308.1 226.3,308.8 C218.3,312.5 210.2,316.1 202.2,319.7 C199.7,320.8 197.8,322.6 199.1,325.6 C200.3,328.6 202.9,328.4 205.4,327.4 C205.9,327.2 206.3,327 206.8,326.8 C218.8,321.8 230.6,316.3 242,310.1 C244.1,309 246.2,307.8 246.1,305 C246,301.9 243.5,301 241.1,300.2 C209,288.7 176.9,276.9 144.3,266.6 C142.4,266 140.8,266 139,266.8 C128.6,271.6 117.7,275.3 106.8,279.1 C104.1,280 100.9,281.2 102,284.9 C103.2,288.9 106.4,288.2 109.4,287.1 C119.2,283.5 129.1,279.8 138.9,276.1 C140.8,275.4 142.4,274.7 144.6,275.4 C164.3,282.3 184,288.9 203.7,295.7 C212.9,298.9 221.9,302.2 231.8,305.8 Z" id="Shape" fill="#ACACAC"></path>
                <path d="M426,106.6 C424.7,106.5 423.3,106.3 422,106.2 C421.4,105.7 420.8,105.5 420,105.8 C400,98.7 389.5,86 388.7,68.2 C388.4,61.6 390.4,55.4 392,49.1 C396,43.8 399.4,38.1 405,34.1 C424.3,20.5 450.9,25.8 462.8,45.7 C475.1,66.2 467.1,92.4 445.3,102.8 C443.7,103.6 442,104.2 440.3,105 C437.2,105.5 434.1,106.1 431.1,106.6 C429.3,106.1 427.7,106.1 426,106.6 Z M453.6,48.3 C453.5,46.8 452.6,45.8 451.4,45.2 C449.3,44.3 447.6,44.9 445.9,46.4 C439.4,52.4 434,59.4 429.1,66.7 C425.1,72.7 425,72.7 421.3,66.6 C419.9,64.2 418.1,63 415.6,64.3 C413.1,65.6 412.9,67.8 414.1,70.3 C415.7,73.8 417,77.4 418.6,80.8 C421.9,87.4 425.2,87.5 429.2,81.5 C435.8,71.6 442.1,61.3 451,53.1 C452.4,51.8 453.2,50.1 453.6,48.3 Z" id="Shape" fill="#85B1D5"></path>
                <path d="M0.9,283 C27.4,298.8 57.2,305.8 86.1,315.1 C138.1,331.7 189.2,351 240.8,368.5 C252.9,372.6 264.5,372.7 276.5,369.6 C291.1,365.9 305.2,361 318.4,353.6 C352.5,334.5 388.1,318.1 421.7,298.1 C425,296.1 429.7,295.5 430.9,290.8 C432.4,290.1 433.8,289.5 435.3,288.8 C439.5,293.9 438.7,297.8 433.2,301.5 C409.3,317.1 383.2,328.6 358.1,341.9 C345.3,348.6 332.6,355.7 319.7,362.2 C302.1,371.2 283.7,377.8 263.9,380 C256.7,380.8 249.7,379.9 242.8,377.6 C189.8,360.2 137.9,339.8 84.7,323.3 C62.8,316.5 41,309.2 19.4,301.5 C10,298.4 3,293.3 0.9,283 Z" id="Shape" fill="#0A0A0B"></path>
                <path d="M438.9,260 C437.9,259.1 438,257.9 438,256.8 C438,242.3 438,227.8 438,213.3 C438,212.1 437.8,210.9 438.9,210.1 C439.6,226.7 440,243.3 438.9,260 Z" id="Shape" fill="#0A0A0B"></path>
                <path d="M438.9,172 C437.6,164.3 437,156.6 439.3,149 C439.7,156.6 439.5,164.3 438.9,172 Z" id="Shape" fill="#0A0A0B"></path>
                <path d="M440.1,122 C438.3,117.6 438.2,113.3 440.1,108.9 C441.1,113.3 441.1,117.7 440.1,122 Z" id="Shape" fill="#0A0A0B"></path>
                <path d="M438,280 C436.7,279.1 437.1,278.5 438.3,278 C438.7,278.7 438.5,279.4 438,280 Z" id="Shape" fill="#0A0A0B"></path>
                <path d="M426,106.6 C427.7,106.2 429.4,106.2 431.1,106.6 C429.3,108.8 427.7,108.8 426,106.6 Z" id="Shape" fill="#0A0A0B"></path>
                <path d="M335,267.5 C334.3,267.3 333.7,267.1 333,266.9 C334.2,265.6 334.7,266.3 335,267.5 Z" id="Shape" fill="#0A0A0B"></path>
                <path d="M393,282.4 C392.3,282.2 391.7,282.1 391,281.9 C392,280.6 392.6,281.2 393,282.4 Z" id="Shape" fill="#0A0A0B"></path>
                <path d="M410,286.4 C409.2,286.7 408.6,286.4 408,285.9 C409,284.6 409.6,285.2 410,286.4 Z" id="Shape" fill="#0A0A0B"></path>
                <path d="M419,288.5 C418.3,288.3 417.7,288.1 417,288 C418.1,286.6 418.6,287.2 419,288.5 Z" id="Shape" fill="#0A0A0B"></path>
                <path d="M420,105.8 C420.7,105.5 421.4,105.6 422,106.2 C421.1,107.3 420.4,106.9 420,105.8 Z" id="Shape" fill="#0A0A0B"></path>
                <path d="M135.4,240.3 C136.3,240.6 137.5,240.9 138.6,241.3 C199.2,264.2 260.9,283.9 322.2,304.5 C325.2,305.5 329.7,306 328.4,310.6 C326.9,315.6 322.8,313.4 319.6,312.4 C258.7,292.1 197.5,272.4 137.3,249.8 C135.7,249.2 134.2,248.6 132.7,247.8 C131,246.8 129.9,245.3 130.5,243.2 C131.3,241 133,240.3 135.4,240.3 Z" id="Shape" fill="#0A0A0B"></path>
                <path d="M165.8,230.4 C173.1,232.7 180,234.6 186.8,236.9 C236,253.6 285.2,270.3 334.4,287.1 C340.2,289.1 345.9,291.5 351.6,293.8 C354.4,294.9 357.8,296.2 356.2,300.1 C354.6,304 351.3,302.6 348.5,301.5 C294.9,280.6 239.7,264.5 185.6,245.2 C179,242.9 172.2,241.1 165.6,238.8 C161.4,237.3 160.3,233.4 163.1,231.2 C164,230.5 165.1,230.2 165.8,230.4 Z" id="Shape" fill="#0A0A0B"></path>
                <path d="M231.8,305.8 C221.8,302.2 212.9,298.9 203.8,295.7 C184.1,288.9 164.4,282.3 144.7,275.4 C142.5,274.6 140.9,275.4 139,276.1 C129.2,279.8 119.3,283.4 109.5,287.1 C106.5,288.2 103.2,288.9 102.1,284.9 C101,281.2 104.2,280.1 106.9,279.1 C117.8,275.4 128.7,271.7 139.1,266.8 C140.9,266 142.5,266 144.4,266.6 C177,276.8 209,288.6 241.2,300.2 C243.6,301.1 246.1,301.9 246.2,305 C246.3,307.8 244.2,308.9 242.1,310.1 C230.7,316.3 218.9,321.7 206.9,326.8 C206.4,327 206,327.2 205.5,327.4 C202.9,328.4 200.4,328.6 199.2,325.6 C198,322.7 199.8,320.9 202.3,319.7 C210.3,316 218.4,312.4 226.4,308.8 C227.9,308.1 229.4,307.2 231.8,305.8 Z" id="Shape" fill="#0A0A0B"></path>
                <path d="M453.6,48.3 C453.2,50.1 452.4,51.8 451,53.1 C442.2,61.4 435.9,71.6 429.2,81.5 C425.1,87.6 421.8,87.4 418.6,80.8 C416.9,77.4 415.6,73.8 414.1,70.3 C413,67.8 413.2,65.6 415.6,64.3 C418.1,63 419.9,64.2 421.3,66.6 C425,72.7 425,72.7 429.1,66.7 C434,59.4 439.4,52.4 445.9,46.4 C447.5,44.9 449.3,44.3 451.4,45.2 C452.7,45.8 453.5,46.8 453.6,48.3 Z" id="Shape" fill="#FEFDFD"></path>
            </g>
            <g id="center" transform="translate(298, 227)" fill="#ACACAC">
                <path d="M67.3,8 C67,10.6 65.1,12.3 63.4,14 C50.9,26.4 38.4,38.8 25.9,51.2 C20.1,56.9 14.4,62.7 8.7,68.5 C6.9,70.3 4.9,71.6 2.6,69.8 C0.1,67.8 0.7,65.4 2.5,63.2 C4.3,61 6.2,58.9 8.2,56.9 C25.3,39.9 42.5,23 59.6,6 C61.2,4.4 62.9,3.1 65.3,4.1 C66.7,4.9 67.3,6.3 67.3,8 Z" id="Shape"></path>
                <path d="M36.6,56.6 C33.7,56.6 31.7,53.7 33.1,51 C33.8,49.7 34.9,48.6 36,47.6 C51.1,32.8 66.7,18.6 81.1,3.1 C83,1 85.3,-1.4 88.3,1.4 C91.1,4.1 89.2,6.6 87.2,8.7 C72.6,24.6 56.5,39.2 41,54.2 C39.7,55.4 38.4,56.4 36.6,56.6 Z" id="Shape"></path>
                <animateTransform attributeName="transform" type="translate" from="240, 265" to="360, 150" dur="1.8s" repeatCount="indefinite"/>
                <animate id="animation1" attributeName="opacity" from="0" to="1" dur="0.9s" begin="0s;animation2.end"/>
                <animate id="animation2" attributeName="opacity" from="1" to="0" dur="0.9s" begin="animation1.end"/>
            </g>
            <g id="outer" transform="translate(238, 149)" fill="#ACACAC">
                <path d="M39.2,22.1 C39.2,24.2 38,25.5 36.6,26.8 C27.3,35.6 18,44.5 8.7,53.3 C6.7,55.2 4.4,56.4 2.1,54.2 C-0.2,51.9 0.9,49.5 2.8,47.6 C12.5,38.2 22.3,28.9 32.1,19.7 C33.5,18.4 35.2,17.8 37.1,18.9 C38.5,19.5 39.2,20.6 39.2,22.1 Z" id="Shape"></path>
                <path d="M225,126.1 C225,128.2 224,129.6 222.8,130.7 C214.1,139.4 205.3,148.1 196.6,156.7 C194.7,158.5 192.6,159.3 190.4,157.2 C188.4,155.3 188.8,153.1 190.5,151.4 C199.7,142 209.1,132.8 218.4,123.5 C219.7,122.2 221.4,122 223,123 C224.3,123.8 224.9,125 225,126.1 Z" id="Shape"></path>
                <path d="M223.3,146.7 C223.3,148.6 222.5,149.8 221.5,150.9 C213.4,159.5 205.3,168 197.2,176.6 C195.3,178.6 193,179.6 190.7,177.3 C188.4,175 189.6,172.7 191.4,170.8 C199.5,162.2 207.6,153.7 215.8,145.1 C217.2,143.6 218.9,142.5 221.1,143.4 C222.5,144.1 223.2,145.4 223.3,146.7 Z" id="Shape"></path>
                <path d="M36.9,4 C36.9,6 35.7,7.4 34.3,8.7 C28.3,14.2 22.3,19.7 16.2,25.2 C14.2,27 11.9,28.2 9.6,25.8 C7.4,23.4 8.6,21.1 10.6,19.2 C16.9,13.3 23.4,7.5 29.8,1.7 C31.2,0.4 32.9,-0.2 34.8,0.8 C36.1,1.4 36.8,2.5 36.9,4 Z" id="Shape"></path>
                <animateTransform attributeName="transform" type="translate" from="215, 200" to="270, 140" dur="1.8s" repeatCount="indefinite"/>
                <animate id="animation1" attributeName="opacity" from="0" to="1" dur="0.9s" begin="0s;animation2.end"/>
                <animate id="animation2" attributeName="opacity" from="1" to="0" dur="0.9s" begin="animation1.end"/>
            </g>
        </g>
    </g>
</svg>