<?xml version="1.0" encoding="UTF-8"?>
<svg width="582px" height="592px" viewBox="0 0 582 592" version="1.1" xmlns="http://www.w3.org/2000/svg" xmlns:xlink="http://www.w3.org/1999/xlink">
    <!-- Generator: Sketch 51.3 (57544) - http://www.bohemiancoding.com/sketch -->
    <title>web-hosting-DARK</title>
    <desc>Created with Sketch.</desc>
    <defs></defs>
    <g id="Page-1" stroke="none" stroke-width="1" fill="none" fill-rule="evenodd">
        <g id="web-hosting-DARK" fill-rule="nonzero">
            <g id="outline">
                <path d="M438.3,549.3 C495.4,514.6 539.9,461.3 563.2,398.7 C586.9,335.1 587.6,263.4 565.3,199.3 C543.3,136.1 499.7,81.3 443,45.7 C385.8,9.7 316.6,-5.5 249.6,2.9 C183.4,11.2 121.2,42 74.6,89.7 C68.8,95.7 63.2,101.9 57.9,108.4 C54.2,112.8 60.6,119.2 64.3,114.8 C105.5,65 162.3,29.7 225.6,16.1 C289.7,2 358.3,10.9 416.8,41 C474.4,70.7 520.9,119.7 547.5,178.7 C574.6,238.8 579.7,308 562.4,371.5 C545.4,433.9 506.8,489.8 454.4,527.7 C447.7,532.6 440.8,537.1 433.7,541.4 C428.8,544.5 433.3,552.3 438.3,549.3 Z" id="Shape" fill="#DB373E"></path>
                <path d="M0.4,372.2 C26.8,470 103.2,549.5 200.3,578.9 C228.1,587.3 257,591.4 286,591.5 C291.8,591.5 291.8,582.5 286,582.5 C236.7,582.3 188,569.8 145.1,545.5 C102.2,521.2 65.9,485.9 40.5,443.7 C26.6,420.6 16.1,395.8 9.1,369.8 C7.6,364.2 -1.1,366.6 0.4,372.2 Z" id="Shape" fill="#DB373E"></path>
                <path d="M133.7,509.8 C196.2,554.2 276.4,569.3 350.8,550.4 C422.2,532.3 484,483.4 518.3,418.3 C538.1,380.6 548.3,338.5 548.5,296 C548.5,290.2 539.5,290.2 539.5,296 C539.2,368.3 508.2,437.7 454.1,485.8 C399,534.7 323.6,557.4 250.6,547.1 C210.1,541.4 171.6,525.7 138.2,502.1 C133.5,498.7 129,506.5 133.7,509.8 Z" id="Shape" fill="#AFAFAF"></path>
                <path d="M362.2,44.7 C272,17.7 172.2,41.4 104.2,106.6 C85.6,124.4 69.8,145 57.1,167.4 C54.2,172.4 62,177 64.9,171.9 C109.5,93.4 193.6,43.2 284.1,42.5 C309.8,42.3 335.2,46 359.8,53.4 C365.4,55.1 367.7,46.4 362.2,44.7 Z" id="Shape" fill="#AFAFAF"></path>
            </g>
            <g id="static" transform="translate(115.000000, 176.000000)">
                <path d="M78.6,42.6 C111.7,17 148.5,0.7 190.9,0.3 C232.5,-6.7168493e-15 268,15.6 298.3,43.6 C298,43.7 297.6,43.7 297.4,43.9 C291.1,47.4 288.5,54.8 292.1,59 C291.3,60.3 290.5,61.6 289.7,62.8 C261.3,104.1 233.6,145.8 206.4,188 C205.666667,189.133333 201.033333,196.5 192.5,210.1 C193.833333,210.1 192.7,210.1 189.1,210.1 C183.7,210.1 185.9,210.7 184.3,210.1 C183.9,209.4 183.7,208.5 183.2,207.9 C153.5,166.7 124.6,124.9 98.7,81 C94.5,73.9 89.3,67.3 86.7,59.3 C87.6,58.1 89.1,56.8 88.4,55.4 C86,50.7 84.2,45.2 78.6,42.6 Z M254.9,20.5 C255.1,17.9 254.4,16.3 252.5,15.5 C250.3,14.6 249,16.2 248.2,17.8 C246.7,20.7 245.4,23.8 244.3,26.9 C243.6,28.8 244.4,30.5 246.1,31.6 C247.9,32.7 249.2,31.5 250.4,30.3 C253,27.2 254,23.6 254.9,20.5 Z M191.9,12.3 C191.9,9.4 192.1,7.4 191.8,5.5 C191.6,3.8 190.4,2.2 188.8,1.9 C186.8,1.5 186.2,3.6 185.6,5 C184.6,7 185.1,9.2 185.1,11.4 C185.1,14.5 184.8,18.7 188.9,18.8 C193.8,18.8 191.3,14.1 191.9,12.3 Z M126.9,28.3 C126.9,24.7 122.7,18.9 120.5,19.1 C118.4,19.3 117.9,20.9 118,22.7 C118.2,26.3 121.6,31.1 123.9,31 C126,30.9 126.9,29.7 126.9,28.3 Z" id="Shape" fill="#666666"></path>
                <path d="M86.8,59.5 C89.4,67.5 94.6,74.1 98.8,81.2 C124.6,125 153.5,166.8 183.3,208.1 C183.8,208.8 184,209.6 184.4,210.3 C182.9,210.5 181.5,210.9 180,210.9 C160,211 140.1,211 120.1,211.2 C91.5,211.5 62.9,211.8 34.3,212.2 C28.8,212.3 23.3,212.7 17.9,213.4 C6.1,214.9 2,212 0.8,200.4 C-0.4,188.9 1.5,177.7 4.7,166.6 C6.7,167.6 8.8,168.8 10.9,169.6 C12.5,170.3 14.2,170.1 15.2,168.4 C16.3,166.6 15.3,165.1 13.9,164.2 C11.4,162.7 8.7,161.4 6.1,160.1 C5.5,156.6 7.1,153.6 8,150.4 C12.5,134.2 18.6,118.7 26.3,103.8 C26.9,102.7 27.1,101.2 28.8,100.9 C30.3,102.4 31.7,104.1 33.3,105.5 C34.9,106.9 36.8,107.8 38.6,105.9 C40.2,104.2 39.3,102.4 37.9,101.1 C36,99.2 34,97.6 32,95.8 C32.8,90.4 36.8,86.9 39.6,82.7 C48.7,69.3 60,57.8 72.3,47.4 C73.5,46.3 74.7,45.1 76.5,44.9 C79.2,50.3 80.9,56.4 86.8,59.5 Z" id="Shape" fill="#AEAEAE"></path>
                <path d="M206.4,188.1 C233.5,146 261.3,104.2 289.7,62.9 C290.5,61.7 291.3,60.4 292.1,59.1 C298.4,57.4 299.3,51.7 301.2,46.8 C307.9,51.1 312.2,57.8 317.2,63.8 C338.9,90 353,120.1 362.4,152.6 C362.8,153.9 363.3,155.1 362.8,156.5 C359.6,154.7 356.7,156.2 353.8,157.4 C352.4,158 351.1,159.1 351.5,160.8 C352,162.8 353.6,163.1 355.4,163 C358.3,162.8 360.5,160.8 363.1,159.8 C364.4,159.9 364.6,160.9 364.9,161.9 C367.6,173.9 368.9,186.1 369.7,198.4 C369.9,201.5 369,204.6 368.7,207.7 C368.5,210.9 365.5,211.7 362.4,212.1 C354.3,213.1 346.2,212.3 338,212.2 C317,211.8 296.1,211.9 275.1,211.8 C261.1,211.8 247.1,212 233.2,211.8 C222.7,211.7 194.5,210.5 192.5,210.5 C191.5,209.5 205.4,189.7 206.4,188.1 Z M333.1,110.9 C336.2,110.8 341.2,106.7 340.8,104.5 C340.5,102.4 339.1,101.3 337,101.4 C334,101.5 329.2,105.4 329.6,107.7 C329.9,109.8 331.3,110.8 333.1,110.9 Z" id="Shape" fill="#84B1D5"></path>
                <path d="M301.2,46.8 C299.3,51.7 298.4,57.4 292.1,59.1 C288.5,54.9 291.1,47.5 297.4,44 C297.7,43.8 298,43.8 298.3,43.7 C299.9,44.2 300.7,45.4 301.2,46.8 Z" id="Shape" fill="#2F3134"></path>
                <path d="M86.8,59.5 C80.8,56.5 79.2,50.3 76.4,45 C76.8,43.9 77.4,43 78.5,42.7 C84.1,45.3 85.9,50.8 88.4,55.7 C89.2,57 87.7,58.3 86.8,59.5 Z" id="Shape" fill="#2F3134"></path>
                <path d="M6,160 C8.6,161.3 11.3,162.6 13.8,164.1 C15.2,165 16.2,166.5 15.1,168.3 C14.1,170 12.4,170.2 10.8,169.5 C8.7,168.6 6.7,167.5 4.6,166.5 C2.4,163.8 3.2,161.7 6,160 Z" id="Shape" fill="#2F3134"></path>
                <path d="M31.9,95.8 C33.9,97.6 36,99.2 37.8,101.1 C39.2,102.4 40.1,104.2 38.5,105.9 C36.7,107.8 34.8,106.9 33.2,105.5 C31.6,104.1 30.2,102.4 28.7,100.9 C28.9,98.7 29,96.3 31.9,95.8 Z" id="Shape" fill="#2F3134"></path>
                <path d="M363.1,159.8 C360.5,160.8 358.3,162.8 355.4,163 C353.6,163.1 351.9,162.8 351.5,160.8 C351.1,159.1 352.4,158 353.8,157.4 C356.7,156.2 359.6,154.7 362.8,156.5 C363.3,157.5 363.4,158.6 363.1,159.8 Z" id="Shape" fill="#2F3134"></path>
                <path d="M254.9,20.5 C254.1,23.6 253,27.2 250.4,30.2 C249.3,31.5 248,32.7 246.1,31.5 C244.4,30.4 243.6,28.8 244.3,26.8 C245.4,23.7 246.7,20.7 248.2,17.7 C249,16.1 250.3,14.5 252.5,15.4 C254.4,16.2 255.1,17.9 254.9,20.5 Z" id="Shape" fill="#2F3134"></path>
                <path d="M191.9,12.3 C191.3,14.1 193.8,18.8 188.8,18.7 C184.7,18.6 185,14.4 185,11.3 C185,9.2 184.6,7 185.5,4.9 C186.2,3.5 186.7,1.4 188.7,1.8 C190.3,2.1 191.5,3.7 191.7,5.4 C192.1,7.4 191.9,9.4 191.9,12.3 Z" id="Shape" fill="#2F3134"></path>
                <path d="M126.9,28.3 C126.9,29.8 126,31 123.9,31 C121.5,31.1 118.1,26.3 118,22.7 C117.9,20.9 118.3,19.3 120.5,19.1 C122.7,18.9 126.9,24.7 126.9,28.3 Z" id="Shape" fill="#2F3134"></path>
                <path d="M333.1,110.9 C331.3,110.9 329.9,109.9 329.6,107.8 C329.3,105.5 334,101.6 337,101.5 C339.1,101.4 340.5,102.5 340.8,104.6 C341.2,106.6 336.3,110.7 333.1,110.9 Z" id="Shape" fill="#2F3134"></path>
            </g>
            <g id="needle" transform="translate(300.000000, 319.000000)" fill="#2F3134">
                <path d="M15.5926675,49.6518519 C47.1926675,34.2518519 79.2926675,19.9518519 111.892668,6.85185185 C117.192668,4.75185185 122.392668,2.75185185 127.692668,0.651851852 C129.892668,-0.148148148 131.992668,-0.648148148 133.292668,1.85185185 C134.692668,4.65185185 132.492668,5.85185185 130.592668,6.75185185 C102.692668,20.5518519 75.6926675,36.1518519 48.5926675,51.6518519 C37.4926675,58.0518519 25.2926675,62.3518519 13.4926675,67.0518519 C9.19266752,67.7518519 4.89266752,68.9518519 0.792667523,66.4518519 C-1.10733248,62.7518519 0.692667523,59.9518519 3.19266752,57.3518519 C6.59266752,53.6518519 11.0926675,51.5518519 15.5926675,49.6518519 Z" id="Needle">
                    <animateTransform
                        id="needleStart"
                        attributeName="transform"
                        type="rotate"
                        from="0" 
                        to="25"
                        dur="0.7s"
                        begin="0s;needleEnd.end" 
                    />
                    <animateTransform
                        id="needleEnd"
                        attributeName="transform"
                        type="rotate"
                        from="25" 
                        to="0"
                        dur="0.2s"
                        begin="needleStart.end" 
                    />
                </path>
                <animateTransform
                        id="needlePositionStart"
                        attributeName="transform"
                        type="translate"
                        from="300, 319" 
                        to="330, 319"
                        dur="0.7s"
                        begin="0s;needlePositionEnd.end" 
                    />
                <animateTransform
                    id="needlePositionEnd"
                    attributeName="transform"
                    type="translate"
                    from="330, 319"
                    to="300, 319" 
                    dur="0.2s"
                    begin="needlePositionStart.end" 
                />
            </g>
            <g id="speed" transform="translate(39.000000, 212.000000)" fill="#AEAEAE">
                <path d="M36.5,8.8 C26.8,8.8 17.2,8.8 7.5,8.8 C5.8,8.8 4.2,8.9 2.6,8.1 C1.2,7.4 -4.57966998e-16,6.5 0.1,4.7 C0.2,2.8 1.4,1.6 3.1,1.2 C4.2,0.9 5.4,1 6.6,1 C27.9,1.1 49.2,0.8 70.5,1.9 C71.5,2 72.5,1.9 73.5,2.1 C75,2.5 76.5,3.2 76.4,5 C76.4,6.5 75.1,7.4 73.8,7.7 C71.4,8.2 68.9,8.7 66.4,8.7 C56.5,8.9 46.5,8.9 36.5,8.8 C36.5,8.8 36.5,8.8 36.5,8.8 Z" id="Speed"></path>
                <path d="M65,31.9 C54.2,31.8 43.4,32 32.6,31 C29.7,30.7 26.8,30.1 26.7,27 C26.6,23.6 29.7,23.1 32.6,23.2 C52,23.8 71.5,24.5 90.9,25.1 C92.9,25.2 94.8,25.6 94.9,27.9 C95,30.7 92.7,31.7 90.5,31.7 C84.3,32 78.2,31.9 72,31.9 C69.7,31.9 67.3,31.9 65,31.9 Z" id="Speed"></path>
                <animateTransform
                    attributeName="transform"
                    type="translate"
                    from="-50, 212" 
                    to="70, 212"
                    dur="0.8s"
                    repeatCount="indefinite"
                />
                <animate id="animation1"
                    attributeName="opacity"
                    from="0" to="1" dur="0.4s"
                    begin="0s;animation2.end" 
                />
                <animate id="animation2"
                    attributeName="opacity"
                    from="1" to="0" dur="0.4s" 
                    begin="animation1.end" 
                />
            </g>
        </g>
    </g>
</svg>