<?xml version="1.0" encoding="UTF-8"?>
<svg width="582px" height="592px" viewBox="0 0 582 592" version="1.1" xmlns="http://www.w3.org/2000/svg" xmlns:xlink="http://www.w3.org/1999/xlink">
    <!-- http://www.hatchet.com.au -->
    <title>Web Design - DARK - Animated</title>
    <desc>Copyright - Hatchet Pty Ltd</desc>
    <defs></defs>
    <g id="Page-1" stroke="none" stroke-width="1" fill="none" fill-rule="evenodd">
        <g id="website-design-DARK" fill-rule="nonzero">
            <g id="outer">
                <path d="M438.3,549.3 C495.4,514.6 539.9,461.3 563.2,398.7 C586.9,335.1 587.6,263.4 565.3,199.3 C543.3,136.1 499.7,81.3 443,45.7 C385.8,9.7 316.6,-5.5 249.6,2.9 C183.4,11.2 121.2,42 74.6,89.7 C68.8,95.7 63.2,101.9 57.9,108.4 C54.2,112.8 60.6,119.2 64.3,114.8 C105.5,65 162.3,29.7 225.6,16.1 C289.7,2 358.3,10.9 416.8,41 C474.4,70.7 520.9,119.7 547.5,178.7 C574.6,238.8 579.7,308 562.4,371.5 C545.4,433.9 506.8,489.8 454.4,527.7 C447.7,532.6 440.8,537.1 433.7,541.4 C428.8,544.5 433.3,552.3 438.3,549.3 Z" id="Shape" fill="#DB373E"></path>
                <path d="M0.4,372.2 C26.8,470 103.2,549.5 200.3,578.9 C228.1,587.3 257,591.4 286,591.5 C291.8,591.5 291.8,582.5 286,582.5 C236.7,582.3 188,569.8 145.1,545.5 C102.2,521.2 65.9,485.9 40.5,443.7 C26.6,420.6 16.1,395.8 9.1,369.8 C7.6,364.2 -1.1,366.6 0.4,372.2 Z" id="Shape" fill="#DB373E"></path>
                <path d="M133.7,509.8 C196.2,554.2 276.4,569.3 350.8,550.4 C422.2,532.3 484,483.4 518.3,418.3 C538.1,380.6 548.3,338.5 548.5,296 C548.5,290.2 539.5,290.2 539.5,296 C539.2,368.3 508.2,437.7 454.1,485.8 C399,534.7 323.6,557.4 250.6,547.1 C210.1,541.4 171.6,525.7 138.2,502.1 C133.5,498.7 129,506.5 133.7,509.8 Z" id="Shape" fill="#AFAFAF"></path>
                <path d="M362.2,44.7 C272,17.7 172.2,41.4 104.2,106.6 C85.6,124.4 69.8,145 57.1,167.4 C54.2,172.4 62,177 64.9,171.9 C109.5,93.4 193.6,43.2 284.1,42.5 C309.8,42.3 335.2,46 359.8,53.4 C365.4,55.1 367.7,46.4 362.2,44.7 Z" id="Shape" fill="#AFAFAF"></path>
            </g>
            <g id="computer" transform="translate(123, 120)">
                <g id="inner" transform="translate(54, 0)">
                    <path d="M57,44.9 C43.5,44.9 30,44.9 16.6,44.9 C15.3,44.9 13.9,44.9 12.6,44.9 C1.5,44.5 0,42.9 0.1,31.9 C0.1,26.7 0.4,21.6 0.9,16.5 C1.4,11.9 3.9,9.4 8.3,9.2 C32.7,7.9 57.1,7.8 81.5,9.8 C86.8,10.2 92.1,10.3 97.4,9.5 C99.5,9.2 101.7,9.2 103.9,9.2 C108.3,9.2 110.7,11.6 110.8,16 C111,22 111.2,27.9 111.9,33.9 C112.9,41.5 109.5,44.8 101.4,44.9 C86.7,45 71.8,44.9 57,44.9 Z M56.5,35.9 C56.5,35.9 56.5,35.9 56.5,35.9 C70.3,35.9 84.1,35.9 97.9,35.9 C99.8,35.9 102.4,36.3 102,33.2 C101.3,28.5 103.9,23.3 100.2,19 C99.9,18.6 98.9,18.8 98.3,18.8 C87,19.3 75.7,18 64.4,17.9 C49.3,17.7 34.1,17.8 19,17.8 C9.4,17.8 9.4,17.8 9,27.4 C8.6,35.4 8.8,35.7 17,35.8 C30.2,36 43.4,35.9 56.5,35.9 Z" id="Shape" fill="#B2B2B2"></path>
                    <path d="M141.4,76.6 C169.7,78.9 198,77.2 226.3,77.8 C232.6,77.9 238.9,78.3 245.1,79.9 C245.3,114.2 244.3,148.5 246.1,182.8 C246.3,187.5 244.7,188.6 240.4,188.1 C233.6,187.3 226.9,186.4 220.1,186.3 C195.3,186 170.5,185.9 145.8,186.1 C141.5,186.1 140.9,184.7 140.9,181 C141,160.2 140.9,139.4 141,118.5 C141,104.6 141.2,90.6 141.4,76.6 Z" id="Shape" fill="#FEFDFD"></path>
                    <path d="M142.2,48.7 C141.4,37.2 143.3,25.8 143.1,14.3 C143,11.7 144.5,10.8 146.9,11 C155.9,11.5 164.9,11.4 173.8,11.6 C188.7,11.9 203.7,10.9 218.7,10.6 C227.2,10.4 235.7,10.3 244.2,10.1 C246.8,10 247.2,11.5 247.1,13.6 C246.6,25.9 246.1,38.2 245.7,50.5 C223.8,50.5 201.9,49.6 180,48.6 C167.4,47.9 154.8,48.8 142.2,48.7 Z" id="Shape" fill="#FEFDFD"></path>
                    <path d="M141.4,76.6 C141.2,90.6 141,104.6 141,118.5 C140.9,139.3 141,160.1 140.9,181 C140.9,184.7 141.5,186.1 145.8,186.1 C170.6,185.9 195.4,186 220.1,186.3 C226.9,186.4 233.7,187.3 240.4,188.1 C244.6,188.6 246.3,187.5 246.1,182.8 C244.3,148.5 245.3,114.2 245.1,79.9 C248.3,80.3 251.3,81.1 254.1,82.9 C254.1,108.4 254.1,133.8 254.3,159.3 C254.4,169.9 254.8,180.6 255.1,191.2 C255.3,196.9 253.7,198.5 248,197.8 C213.7,193.5 179.2,195.2 144.8,194.9 C132.1,194.8 132,195.3 132,182.5 C132,147.2 132.2,112 132.3,76.7 C135.3,76.7 138.3,76.7 141.4,76.6 Z" id="Shape" fill="#B2B2B2"></path>
                    <path d="M106.9,76.3 C107,80.1 107.1,83.9 107.1,87.8 C107.1,91.3 105.4,93.3 101.6,93.3 C73.2,92.8 44.8,94.9 16.4,94.1 C6.8,93.8 5.4,92.7 5.3,83.2 C5.3,81.9 5.2,80.5 5.1,79.2 C39,76.1 72.9,75.2 106.9,76.3 Z" id="Shape" fill="#DB3C42"></path>
                    <path d="M56.5,35.9 C43.4,35.9 30.2,36 17.1,35.9 C8.9,35.8 8.7,35.6 9.1,27.5 C9.5,17.9 9.5,17.9 19.1,17.9 C34.2,17.9 49.4,17.8 64.5,18 C75.8,18.1 87.1,19.4 98.4,18.9 C99.1,18.9 100,18.7 100.3,19.1 C104,23.4 101.4,28.5 102.1,33.3 C102.5,36.4 99.9,36 98,36 C84.1,35.9 70.3,35.9 56.5,35.9 C56.5,35.9 56.5,35.9 56.5,35.9 Z" id="Shape" fill="#FEFDFD"></path>
                    <path d="M253.9,244.2 C254.4,251.8 253.2,262.1 255,272.4 C255.5,275.4 253.9,277.6 251.2,278.7 C248.1,280 245,280.9 241.6,280.9 C210.2,280.5 178.7,279.5 147.3,280.1 C136.4,280.3 133.6,275.9 134.6,265 C135.9,251.6 135.1,238.1 135.1,224.6 C135.1,220.8 134.9,216.9 135,213.1 C135.1,208.4 137.7,205.5 142.3,205 C160.1,203.2 177.9,203.8 195.7,204.4 C204.3,204.7 213,205.4 221.6,205.8 C229.7,206.2 237.9,206.5 246,207 C251.9,207.4 254.1,209.9 254.1,216 C254,224.5 253.9,233 253.9,244.2 Z" id="Shape" fill="#85B2D6"></path>
                    <path d="M58.4,143.9 C43.7,144.8 27.8,143.3 12,144.8 C7.6,145.2 5.2,142.8 4.8,138.4 C3.9,128.9 3.7,119.5 4,110 C4.2,103.6 6.3,101.5 12.8,101 C30.4,99.7 48.1,99.6 65.7,100 C77.3,100.2 89,99.4 100.6,100.9 C107.7,101.8 108.8,103.2 108.8,110.2 C108.8,118.7 108.9,127.2 108.6,135.7 C108.4,142.8 106.8,144 99.8,144 C86.5,143.9 73,143.9 58.4,143.9 Z" id="Shape" fill="#85B2D6"></path>
                    <path d="M65.2,272.9 C49.7,273.3 32.8,272.9 15.8,272.1 C10.5,271.8 9.2,270.4 9.1,265.1 C8.5,246.2 7.9,227.2 7.2,208.3 C7,201.8 9.6,199.2 16.2,198.9 C36.7,197.7 57.1,199.6 77.5,199.4 C85.6,199.3 93.8,200.2 101.9,200.1 C106.7,200.1 107.8,203.2 107.9,207 C108.1,214.2 107.8,221.3 108.3,228.5 C109.1,240.6 108.1,252.7 107.9,264.9 C107.8,271.7 106.2,273.1 99.7,273.1 C88.7,272.9 77.7,272.9 65.2,272.9 Z M64,263.9 C74.1,263.9 84.3,263.8 94.4,264 C97.9,264.1 99.1,262.8 99.1,259.4 C99,243.9 99,228.5 99.1,213 C99.1,209.9 97.9,209.1 95,209 C70.6,208.3 46.1,207.8 21.7,207.9 C18.1,207.9 16.8,208.7 16.8,212.6 C16.8,228.2 17.4,243.8 17.9,259.5 C18,262.2 18.8,263.2 21.6,263.4 C35.7,264.3 49.9,264 64,263.9 Z" id="Shape" fill="#B2B2B2"></path>
                    <path d="M53.6,148.8 C70.3,148.9 85.6,148.7 100.9,150.1 C107.8,150.7 109.2,152 109,159 C108.9,165.8 109,172.7 108.7,179.5 C108.4,186.8 106.8,187.7 99.7,188.3 C72.3,190.4 44.9,190.2 17.4,189.9 C7.6,189.8 5.9,188.1 5.8,178.2 C5.7,171.2 6.1,164.3 5.1,157.3 C4.4,152.4 6.5,150.5 11.6,150 C26.1,148.6 40.6,149.3 53.6,148.8 Z M53.4,157.8 C42.6,158.3 30.5,157.3 18.4,158.7 C15.5,159 14.7,160.1 14.8,162.7 C15,167.4 15,172 14.8,176.7 C14.7,179.3 15.7,180.2 18.3,180.2 C22.8,180.3 27.3,180.7 31.7,180.9 C53.3,181.7 74.9,180.7 96.5,179.2 C99.2,179 99.9,177.9 99.9,175.5 C99.9,171.3 99.8,167.2 100.1,163 C100.3,160 99.2,159.1 96.2,158.8 C82.4,157.5 68.6,158 53.4,157.8 Z" id="Shape" fill="#B2B2B2"></path>
                    <path d="M64,263.9 C49.9,264.1 35.7,264.4 21.6,263.2 C18.8,263 18,262 17.9,259.3 C17.4,243.7 16.8,228.1 16.8,212.4 C16.8,208.5 18.2,207.7 21.7,207.7 C46.1,207.6 70.6,208.1 95,208.8 C97.9,208.9 99.1,209.7 99.1,212.8 C99,228.3 99,243.7 99.1,259.2 C99.1,262.6 97.9,263.9 94.4,263.8 C84.3,263.8 74.1,263.9 64,263.9 Z" id="Shape" fill="#FEFDFD"></path>
                    <path d="M53.4,157.8 C68.6,158 82.4,157.5 96.2,158.8 C99.2,159.1 100.3,160 100.1,163 C99.9,167.2 99.9,171.3 99.9,175.5 C99.9,177.9 99.2,179 96.5,179.2 C74.9,180.7 53.3,181.7 31.7,180.9 C27.2,180.7 22.7,180.3 18.3,180.2 C15.7,180.2 14.7,179.2 14.8,176.7 C14.9,172 14.9,167.4 14.8,162.7 C14.7,160 15.5,159 18.4,158.7 C30.5,157.4 42.7,158.3 53.4,157.8 Z" id="Shape" fill="#FEFDFD"></path>
                    <path d="M142.2,48.7 C139.1,48.8 136,48.9 133,48.9 C133.4,36.4 133.8,24 134.2,11.5 C134.5,3.3 135.9,2 144.1,2 C163.4,1.9 182.8,2.6 202,1.7 C218.5,0.9 234.9,2 251.3,0.5 C255.3,0.1 257.1,2.8 256.8,8 C256.1,20.4 255.6,32.9 255,45.3 C254.9,47.1 255.1,49 255.1,50.8 C252,50.7 248.8,50.5 245.7,50.4 C246.2,38.1 246.6,25.8 247.1,13.5 C247.2,11.4 246.8,9.9 244.2,10 C235.7,10.2 227.2,10.3 218.7,10.5 C203.7,10.9 188.8,11.9 173.8,11.5 C164.8,11.3 155.8,11.5 146.9,10.9 C144.5,10.8 143,11.6 143.1,14.2 C143.3,25.8 141.4,37.2 142.2,48.7 Z" id="Shape" fill="#B2B2B2"></path>
                    <animateTransform attributeName="transform" type="translate" from="54, 60" to="54, -50" dur="1.8s" repeatCount="indefinite"/>
                    <animate id="animation1" attributeName="opacity" from="0" to="1" dur="0.2s" begin="0s;animation2.end"/>
                    <animate id="animation2" attributeName="opacity" from="1" to="0" dur="1s" begin="animation1.end+0.6"/>
                </g>
                <path d="M113.4,324 C86.4,322.9 59.5,321.7 32.5,320.6 C27.4,320.4 22.6,319.2 17.8,317.8 C12.2,316.1 8.5,312.2 6.8,306.5 C5.6,302.5 5.2,298.4 5.1,294.2 C4.4,243.4 2.1,192.6 0.6,141.9 C-0.1,120.4 -0.3,98.9 1.2,77.5 C1.9,67.9 6.3,61.6 15.2,58.2 C24.4,54.7 34,53.8 43.6,53.3 C83.4,51 123.2,51 163,50 C171,49.8 179,49.4 187,49.1 C190.1,49 193.2,48.9 196.2,48.9 C208.8,49 221.4,48.1 234,48.7 C255.9,49.7 277.8,50.6 299.7,50.6 C302.8,50.7 306,50.9 309.1,51 C319.4,51.6 329.2,53.2 336.5,61.9 C343,69.6 344.3,78.8 344.9,88 C345.9,103.1 346.4,118.3 346.9,133.4 C348.1,173.5 348,213.6 347.8,253.7 C347.7,270.4 345.3,286.9 342.7,303.3 C340.5,316.8 334,321.6 321.9,322.4 C295.6,324.2 269.3,324 243,325 C199.8,324.9 156.6,325.3 113.4,324 Z M195.4,76.6 C192.4,76.7 189.3,76.8 186.3,76.8 C177.9,76.6 169.4,76.4 161,76.3 C127,75.2 93.1,76.1 59.2,79.2 C42.8,79.2 32.6,88 26.2,102.3 C23.8,107.6 23.3,113.2 23.3,118.9 C22.9,156 25,193.2 25.2,230.3 C25.3,241.3 25.8,252.3 26,263.3 C26.3,284.9 35,292.7 56.7,294.2 C70.2,295.1 83.6,295.3 97.1,295.1 C117.6,294.7 138.1,294.3 158.5,295.1 C203.8,296.7 249,298.5 294.3,296.3 C310.2,295.5 320.7,286.8 324.2,271.3 C326.6,260.5 327.3,249.6 327.7,238.6 C329.3,197.6 326.8,156.7 327.2,115.7 C327.2,114 327.2,112.4 327,110.7 C325.4,98.3 320.4,88.1 308,83.1 C305.3,81.3 302.2,80.5 299,80.1 C292.8,78.5 286.5,78.1 280.2,78 C251.9,77.2 223.6,78.9 195.4,76.6 Z" id="Shape" fill="#686868"></path>
                <path d="M241.7,346 C251.9,346.1 262,346.2 272.2,346.3 C279.2,346.4 282.7,350.3 282.8,357.9 C282.9,364.4 279.4,367.8 272.4,367.8 C238.9,367.6 205.5,367.8 172,367.1 C141,366.4 110.1,367.6 79.2,369.8 C72.3,370.3 70.1,367.6 71.5,360.9 C73.2,352.7 77.1,349.1 86,348.5 C94.8,347.8 103.6,347.5 112.4,347.1 C118.2,346.8 124,346.4 129.8,346.3 C167.1,346.1 204.4,346.1 241.7,346 Z" id="Shape" fill="#686868"></path>
                <path d="M241.7,346 C204.4,346.1 167.2,346.1 129.9,346.2 C124.1,346.2 118.3,346.7 112.5,347 C112.8,339.3 113.2,331.7 113.5,324 C156.7,325.3 199.9,324.9 243.1,325 C243.8,332.1 242.4,339 241.7,346 Z" id="Shape" fill="#010101"></path>
            </g>
        </g>
    </g>
</svg>